<svg height="750" width="700" xmlns="http://www.w3.org/2000/svg">
<title>Your Diagram Title</title>
<!-- Generated with SankeyMATIC: 4/15/2025, 4:52:33 PM -->
<rect height="750" width="700" fill="#ffffff"></rect>
<g transform="translate(47.35789,0)">
<g id="sankey_flows">
<path id="flow0" d="M12 95.6638C154.03381 95.6638 154.03381 49.13567 296.06762 49.13567" fill="none" stroke-width="9.64634" stroke="#e377c2" opacity="0.45"><title>Kids → Gaming_Interact: 1</title></path>
<path id="flow1" d="M12 105.31014C154.03381 105.31014 154.03381 65.42889 296.06762 65.42889" fill="none" stroke-width="9.64634" stroke="#e377c2" opacity="0.45"><title>Kids → Recess: 1</title></path>
<path id="flow2" d="M12 114.95648C154.03381 114.95648 154.03381 81.7221 296.06762 81.7221" fill="none" stroke-width="9.64634" stroke="#e377c2" opacity="0.45"><title>Kids → Teach_PC_keyboard_knobs: 1</title></path>
<path id="flow3" d="M12 124.60282C154.03381 124.60282 154.03381 98.01532 296.06762 98.01532" fill="none" stroke-width="9.64634" stroke="#e377c2" opacity="0.45"><title>Kids → Cello_Sounds: 1</title></path>
<path id="flow4" d="M12 134.24916C154.03381 134.24916 154.03381 114.30854 296.06762 114.30854" fill="none" stroke-width="9.64634" stroke="#e377c2" opacity="0.45"><title>Kids → Maddie_Church: 1</title></path>
<path id="flow5" d="M12 143.8955C154.03381 143.8955 154.03381 130.60175 296.06762 130.60175" fill="none" stroke-width="9.64634" stroke="#e377c2" opacity="0.45"><title>Kids → Boys_Bible_time: 1</title></path>
<path id="flow6" d="M12 153.54184C154.03381 153.54184 154.03381 146.89497 296.06762 146.89497" fill="none" stroke-width="9.64634" stroke="#e377c2" opacity="0.45"><title>Kids → Maddie_tea_date: 1</title></path>
<path id="flow7" d="M12 158.36502v9.64634L296.06762 168.01136v-9.64634z" fill="#e377c2" stroke-width="0.5" stroke="#e377c2" opacity="0.45"><title>Kids → Boys_Sword_battles: 1</title></path>
<path id="flow8" d="M12 172.83453C154.03381 172.83453 154.03381 179.4814 296.06762 179.4814" fill="none" stroke-width="9.64634" stroke="#e377c2" opacity="0.45"><title>Kids → Billiards: 1</title></path>
<path id="flow9" d="M12 182.48087C154.03381 182.48087 154.03381 195.77462 296.06762 195.77462" fill="none" stroke-width="9.64634" stroke="#e377c2" opacity="0.45"><title>Kids → Trampoline: 1</title></path>
<path id="flow10" d="M12 192.12721C154.03381 192.12721 154.03381 212.06784 296.06762 212.06784" fill="none" stroke-width="9.64634" stroke="#e377c2" opacity="0.45"><title>Kids → Carline: 1</title></path>
<path id="flow11" d="M12 201.77355C154.03381 201.77355 154.03381 228.36105 296.06762 228.36105" fill="none" stroke-width="9.64634" stroke="#e377c2" opacity="0.45"><title>Kids → Cuddle_Time_Movie: 1</title></path>
<path id="flow12" d="M12 211.41989C154.03381 211.41989 154.03381 244.65427 296.06762 244.65427" fill="none" stroke-width="9.64634" stroke="#e377c2" opacity="0.45"><title>Kids → Buffet: 1</title></path>
<path id="flow13" d="M12 221.06623C154.03381 221.06623 154.03381 260.94748 296.06762 260.94748" fill="none" stroke-width="9.64634" stroke="#e377c2" opacity="0.45"><title>Kids → Maddie_Hair: 1</title></path>
<path id="flow14" d="M12 230.71258C154.03381 230.71258 154.03381 277.2407 296.06762 277.2407" fill="none" stroke-width="9.64634" stroke="#e377c2" opacity="0.45"><title>Kids → Kids_Homework: 1</title></path>
<path id="flow15" d="M12 306.82767C154.03381 306.82767 154.03381 293.53392 296.06762 293.53392" fill="none" stroke-width="9.64634" stroke="#2ca02c" opacity="0.45"><title>Family → Mom_Garden: 1</title></path>
<path id="flow16" d="M12 316.47401C154.03381 316.47401 154.03381 309.82713 296.06762 309.82713" fill="none" stroke-width="9.64634" stroke="#2ca02c" opacity="0.45"><title>Family → Mom_Art: 1</title></path>
<path id="flow17" d="M12 321.29718v9.64634L296.06762 330.94352v-9.64634z" fill="#2ca02c" stroke-width="0.5" stroke="#2ca02c" opacity="0.45"><title>Family → Mama_Delia: 1</title></path>
<path id="flow18" d="M12 335.76669C154.03381 335.76669 154.03381 342.41357 296.06762 342.41357" fill="none" stroke-width="9.64634" stroke="#2ca02c" opacity="0.45"><title>Family → Nephews: 1</title></path>
<path id="flow19" d="M12 345.41303C154.03381 345.41303 154.03381 358.70678 296.06762 358.70678" fill="none" stroke-width="9.64634" stroke="#2ca02c" opacity="0.45"><title>Family → Brother: 1</title></path>
<path id="flow20" d="M12 378.32344C154.03381 378.32344 154.03381 375 296.06762 375" fill="none" stroke-width="9.64634" stroke="#bcbd22" opacity="0.45"><title>Friends → Gift_Painting: 1</title></path>
<path id="flow21" d="M12 387.96978C154.03381 387.96978 154.03381 391.29322 296.06762 391.29322" fill="none" stroke-width="9.64634" stroke="#bcbd22" opacity="0.45"><title>Friends → Connect: 1</title></path>
<path id="flow22" d="M12 430.8505C154.03381 430.8505 154.03381 407.58643 296.06762 407.58643" fill="none" stroke-width="9.64634" stroke="#ff7f0e" opacity="0.45"><title>Self → Dive Physical: 1</title></path>
<path id="flow23" d="M12 440.49684C154.03381 440.49684 154.03381 423.87965 296.06762 423.87965" fill="none" stroke-width="9.64634" stroke="#ff7f0e" opacity="0.45"><title>Self → Run: 1</title></path>
<path id="flow24" d="M12 450.14318C154.03381 450.14318 154.03381 440.17287 296.06762 440.17287" fill="none" stroke-width="9.64634" stroke="#ff7f0e" opacity="0.45"><title>Self → Physical_Therapy: 1</title></path>
<path id="flow25" d="M12 459.78952C154.03381 459.78952 154.03381 456.46608 296.06762 456.46608" fill="none" stroke-width="9.64634" stroke="#ff7f0e" opacity="0.45"><title>Self → Dental: 1</title></path>
<path id="flow26" d="M12 469.43586C154.03381 469.43586 154.03381 472.7593 296.06762 472.7593" fill="none" stroke-width="9.64634" stroke="#ff7f0e" opacity="0.45"><title>Self → Art Therapy: 1</title></path>
<path id="flow27" d="M12 479.0822C154.03381 479.0822 154.03381 489.05252 296.06762 489.05252" fill="none" stroke-width="9.64634" stroke="#ff7f0e" opacity="0.45"><title>Self → Trello_Calendar: 1</title></path>
<path id="flow28" d="M12 488.72854C154.03381 488.72854 154.03381 505.34573 296.06762 505.34573" fill="none" stroke-width="9.64634" stroke="#ff7f0e" opacity="0.45"><title>Self → Sankey: 1</title></path>
<path id="flow29" d="M12 498.37489C154.03381 498.37489 154.03381 521.63895 296.06762 521.63895" fill="none" stroke-width="9.64634" stroke="#ff7f0e" opacity="0.45"><title>Self → Instruments: 1</title></path>
<path id="flow30" d="M12 551.22591C154.03381 551.22591 154.03381 537.93216 296.06762 537.93216" fill="none" stroke-width="9.64634" stroke="#1f77b4" opacity="0.45"><title>Business → FCB_Biz_acct: 1</title></path>
<path id="flow31" d="M12 560.87226C154.03381 560.87226 154.03381 554.22538 296.06762 554.22538" fill="none" stroke-width="9.64634" stroke="#1f77b4" opacity="0.45"><title>Business → Drive_100K_users: 1</title></path>
<path id="flow32" d="M12 565.69543v9.64634L296.06762 575.34177v-9.64634z" fill="#1f77b4" stroke-width="0.5" stroke="#1f77b4" opacity="0.45"><title>Business → Artsy: 1</title></path>
<path id="flow33" d="M12 580.16494C154.03381 580.16494 154.03381 586.81181 296.06762 586.81181" fill="none" stroke-width="9.64634" stroke="#1f77b4" opacity="0.45"><title>Business → Roblox: 1</title></path>
<path id="flow34" d="M12 589.81128C154.03381 589.81128 154.03381 603.10503 296.06762 603.10503" fill="none" stroke-width="9.64634" stroke="#1f77b4" opacity="0.45"><title>Business → Tax_deductions: 1</title></path>
<path id="flow35" d="M12 626.04512C154.03381 626.04512 154.03381 619.39825 296.06762 619.39825" fill="none" stroke-width="9.64634" stroke="#e377c2" opacity="0.45"><title>Cisco → Site_Visit: 1</title></path>
<path id="flow36" d="M12 630.86829v9.64634L296.06762 640.51463v-9.64634z" fill="#e377c2" stroke-width="0.5" stroke="#e377c2" opacity="0.45"><title>Cisco → Student_lab: 1</title></path>
<path id="flow37" d="M12 645.3378C154.03381 645.3378 154.03381 651.98468 296.06762 651.98468" fill="none" stroke-width="9.64634" stroke="#e377c2" opacity="0.45"><title>Cisco → BIZ_Dinner: 1</title></path>
<path id="flow38" d="M12 674.92477C154.03381 674.92477 154.03381 668.2779 296.06762 668.2779" fill="none" stroke-width="9.64634" stroke="#1f77b4" opacity="0.45"><title>Divorce → lender: 1</title></path>
<path id="flow39" d="M12 679.74794v9.64634L296.06762 689.39428v-9.64634z" fill="#1f77b4" stroke-width="0.5" stroke="#1f77b4" opacity="0.45"><title>Divorce → Simms_Document: 1</title></path>
<path id="flow40" d="M12 694.21745C154.03381 694.21745 154.03381 700.86433 296.06762 700.86433" fill="none" stroke-width="9.64634" stroke="#1f77b4" opacity="0.45"><title>Divorce → Court_date: 1</title></path>
<path id="flow41" d="M308.06762 49.13567C450.10143 49.13567 450.10143 182.07317 592.13524 182.07317" fill="none" stroke-width="9.64634" stroke="#9467bd" opacity="0.45"><title>Gaming_Interact → Actions Taken: 1</title></path>
<path id="flow42" d="M308.06762 65.42889C450.10143 65.42889 450.10143 191.71951 592.13524 191.71951" fill="none" stroke-width="9.64634" stroke="#9467bd" opacity="0.45"><title>Recess → Actions Taken: 1</title></path>
<path id="flow43" d="M308.06762 370.17683v9.64634L592.13524 379.82317v-9.64634z" fill="#9467bd" stroke-width="0.5" stroke="#9467bd" opacity="0.45"><title>Gift_Painting → Actions Taken: 1</title></path>
<path id="flow44" d="M308.06762 391.29322C450.10143 391.29322 450.10143 384.64634 592.13524 384.64634" fill="none" stroke-width="9.64634" stroke="#9467bd" opacity="0.45"><title>Connect → Actions Taken: 1</title></path>
<path id="flow45" d="M308.06762 407.58643C450.10143 407.58643 450.10143 394.29268 592.13524 394.29268" fill="none" stroke-width="9.64634" stroke="#9467bd" opacity="0.45"><title>Dive Physical → Actions Taken: 1</title></path>
<path id="flow46" d="M308.06762 537.93216C450.10143 537.93216 450.10143 471.46341 592.13524 471.46341" fill="none" stroke-width="9.64634" stroke="#9467bd" opacity="0.45"><title>FCB_Biz_acct → Actions Taken: 1</title></path>
<path id="flow47" d="M308.06762 81.7221C450.10143 81.7221 450.10143 201.36585 592.13524 201.36585" fill="none" stroke-width="9.64634" stroke="#9467bd" opacity="0.45"><title>Teach_PC_keyboard_knobs → Actions Taken: 1</title></path>
<path id="flow48" d="M308.06762 423.87965C450.10143 423.87965 450.10143 403.93902 592.13524 403.93902" fill="none" stroke-width="9.64634" stroke="#9467bd" opacity="0.45"><title>Run → Actions Taken: 1</title></path>
<path id="flow49" d="M308.06762 98.01532C450.10143 98.01532 450.10143 211.0122 592.13524 211.0122" fill="none" stroke-width="9.64634" stroke="#9467bd" opacity="0.45"><title>Cello_Sounds → Actions Taken: 1</title></path>
<path id="flow50" d="M308.06762 114.30854C450.10143 114.30854 450.10143 220.65854 592.13524 220.65854" fill="none" stroke-width="9.64634" stroke="#9467bd" opacity="0.45"><title>Maddie_Church → Actions Taken: 1</title></path>
<path id="flow51" d="M308.06762 130.60175C450.10143 130.60175 450.10143 230.30488 592.13524 230.30488" fill="none" stroke-width="9.64634" stroke="#9467bd" opacity="0.45"><title>Boys_Bible_time → Actions Taken: 1</title></path>
<path id="flow52" d="M308.06762 146.89497C450.10143 146.89497 450.10143 239.95122 592.13524 239.95122" fill="none" stroke-width="9.64634" stroke="#9467bd" opacity="0.45"><title>Maddie_tea_date → Actions Taken: 1</title></path>
<path id="flow53" d="M308.06762 163.18819C450.10143 163.18819 450.10143 249.59756 592.13524 249.59756" fill="none" stroke-width="9.64634" stroke="#9467bd" opacity="0.45"><title>Boys_Sword_battles → Actions Taken: 1</title></path>
<path id="flow54" d="M308.06762 179.4814C450.10143 179.4814 450.10143 259.2439 592.13524 259.2439" fill="none" stroke-width="9.64634" stroke="#9467bd" opacity="0.45"><title>Billiards → Actions Taken: 1</title></path>
<path id="flow55" d="M308.06762 195.77462C450.10143 195.77462 450.10143 268.89024 592.13524 268.89024" fill="none" stroke-width="9.64634" stroke="#9467bd" opacity="0.45"><title>Trampoline → Actions Taken: 1</title></path>
<path id="flow56" d="M308.06762 440.17287C450.10143 440.17287 450.10143 413.58537 592.13524 413.58537" fill="none" stroke-width="9.64634" stroke="#9467bd" opacity="0.45"><title>Physical_Therapy → Actions Taken: 1</title></path>
<path id="flow57" d="M308.06762 212.06784C450.10143 212.06784 450.10143 278.53659 592.13524 278.53659" fill="none" stroke-width="9.64634" stroke="#9467bd" opacity="0.45"><title>Carline → Actions Taken: 1</title></path>
<path id="flow58" d="M308.06762 228.36105C450.10143 228.36105 450.10143 288.18293 592.13524 288.18293" fill="none" stroke-width="9.64634" stroke="#9467bd" opacity="0.45"><title>Cuddle_Time_Movie → Actions Taken: 1</title></path>
<path id="flow59" d="M308.06762 554.22538C450.10143 554.22538 450.10143 481.10976 592.13524 481.10976" fill="none" stroke-width="9.64634" stroke="#9467bd" opacity="0.45"><title>Drive_100K_users → Actions Taken: 1</title></path>
<path id="flow60" d="M308.06762 570.5186C450.10143 570.5186 450.10143 490.7561 592.13524 490.7561" fill="none" stroke-width="9.64634" stroke="#9467bd" opacity="0.45"><title>Artsy → Actions Taken: 1</title></path>
<path id="flow61" d="M308.06762 586.81181C450.10143 586.81181 450.10143 500.40244 592.13524 500.40244" fill="none" stroke-width="9.64634" stroke="#9467bd" opacity="0.45"><title>Roblox → Actions Taken: 1</title></path>
<path id="flow62" d="M308.06762 244.65427C450.10143 244.65427 450.10143 297.82927 592.13524 297.82927" fill="none" stroke-width="9.64634" stroke="#9467bd" opacity="0.45"><title>Buffet → Actions Taken: 1</title></path>
<path id="flow63" d="M308.06762 260.94748C450.10143 260.94748 450.10143 307.47561 592.13524 307.47561" fill="none" stroke-width="9.64634" stroke="#9467bd" opacity="0.45"><title>Maddie_Hair → Actions Taken: 1</title></path>
<path id="flow64" d="M308.06762 619.39825C450.10143 619.39825 450.10143 519.69512 592.13524 519.69512" fill="none" stroke-width="9.64634" stroke="#9467bd" opacity="0.45"><title>Site_Visit → Actions Taken: 1</title></path>
<path id="flow65" d="M308.06762 277.2407C450.10143 277.2407 450.10143 317.12195 592.13524 317.12195" fill="none" stroke-width="9.64634" stroke="#9467bd" opacity="0.45"><title>Kids_Homework → Actions Taken: 1</title></path>
<path id="flow66" d="M308.06762 668.2779C450.10143 668.2779 450.10143 548.63415 592.13524 548.63415" fill="none" stroke-width="9.64634" stroke="#9467bd" opacity="0.45"><title>lender → Actions Taken: 1</title></path>
<path id="flow67" d="M308.06762 603.10503C450.10143 603.10503 450.10143 510.04878 592.13524 510.04878" fill="none" stroke-width="9.64634" stroke="#9467bd" opacity="0.45"><title>Tax_deductions → Actions Taken: 1</title></path>
<path id="flow68" d="M308.06762 635.69146C450.10143 635.69146 450.10143 529.34146 592.13524 529.34146" fill="none" stroke-width="9.64634" stroke="#9467bd" opacity="0.45"><title>Student_lab → Actions Taken: 1</title></path>
<path id="flow69" d="M308.06762 651.98468C450.10143 651.98468 450.10143 538.9878 592.13524 538.9878" fill="none" stroke-width="9.64634" stroke="#9467bd" opacity="0.45"><title>BIZ_Dinner → Actions Taken: 1</title></path>
<path id="flow70" d="M308.06762 684.57111C450.10143 684.57111 450.10143 558.28049 592.13524 558.28049" fill="none" stroke-width="9.64634" stroke="#9467bd" opacity="0.45"><title>Simms_Document → Actions Taken: 1</title></path>
<path id="flow71" d="M308.06762 700.86433C450.10143 700.86433 450.10143 567.92683 592.13524 567.92683" fill="none" stroke-width="9.64634" stroke="#9467bd" opacity="0.45"><title>Court_date → Actions Taken: 1</title></path>
<path id="flow72" d="M308.06762 456.46608C450.10143 456.46608 450.10143 423.23171 592.13524 423.23171" fill="none" stroke-width="9.64634" stroke="#9467bd" opacity="0.45"><title>Dental → Actions Taken: 1</title></path>
<path id="flow73" d="M308.06762 472.7593C450.10143 472.7593 450.10143 432.87805 592.13524 432.87805" fill="none" stroke-width="9.64634" stroke="#9467bd" opacity="0.45"><title>Art Therapy → Actions Taken: 1</title></path>
<path id="flow74" d="M308.06762 489.05252C450.10143 489.05252 450.10143 442.52439 592.13524 442.52439" fill="none" stroke-width="9.64634" stroke="#9467bd" opacity="0.45"><title>Trello_Calendar → Actions Taken: 1</title></path>
<path id="flow75" d="M308.06762 505.34573C450.10143 505.34573 450.10143 452.17073 592.13524 452.17073" fill="none" stroke-width="9.64634" stroke="#9467bd" opacity="0.45"><title>Sankey → Actions Taken: 1</title></path>
<path id="flow76" d="M308.06762 293.53392C450.10143 293.53392 450.10143 326.76829 592.13524 326.76829" fill="none" stroke-width="9.64634" stroke="#9467bd" opacity="0.45"><title>Mom_Garden → Actions Taken: 1</title></path>
<path id="flow77" d="M308.06762 309.82713C450.10143 309.82713 450.10143 336.41463 592.13524 336.41463" fill="none" stroke-width="9.64634" stroke="#9467bd" opacity="0.45"><title>Mom_Art → Actions Taken: 1</title></path>
<path id="flow78" d="M308.06762 326.12035C450.10143 326.12035 450.10143 346.06098 592.13524 346.06098" fill="none" stroke-width="9.64634" stroke="#9467bd" opacity="0.45"><title>Mama_Delia → Actions Taken: 1</title></path>
<path id="flow79" d="M308.06762 521.63895C450.10143 521.63895 450.10143 461.81707 592.13524 461.81707" fill="none" stroke-width="9.64634" stroke="#9467bd" opacity="0.45"><title>Instruments → Actions Taken: 1</title></path>
<path id="flow80" d="M308.06762 342.41357C450.10143 342.41357 450.10143 355.70732 592.13524 355.70732" fill="none" stroke-width="9.64634" stroke="#9467bd" opacity="0.45"><title>Nephews → Actions Taken: 1</title></path>
<path id="flow81" d="M308.06762 358.70678C450.10143 358.70678 450.10143 365.35366 592.13524 365.35366" fill="none" stroke-width="9.64634" stroke="#9467bd" opacity="0.45"><title>Brother → Actions Taken: 1</title></path>
</g>
<g id="sankey_nodes">
<g class="node">
<rect id="r0" class="for_r0" x="0" y="90.84062" height="144.69512" width="12" fill="#e377c2" fill-opacity="1"><title>Kids:
15</title></rect>
</g>
<g class="node">
<rect id="r1" class="for_r1" x="296.06762" y="44.3125" height="9.64634" width="12" fill="#7f7f7f" fill-opacity="1"><title>Gaming_Interact:
1</title></rect>
</g>
<g class="node">
<rect id="r2" class="for_r2" x="296.06762" y="60.60572" height="9.64634" width="12" fill="#bcbd22" fill-opacity="1"><title>Recess:
1</title></rect>
</g>
<g class="node">
<rect id="r3" class="for_r3" x="296.06762" y="76.89893" height="9.64634" width="12" fill="#17becf" fill-opacity="1"><title>Teach_PC_keyboard_knobs:
1</title></rect>
</g>
<g class="node">
<rect id="r4" class="for_r4" x="296.06762" y="93.19215" height="9.64634" width="12" fill="#1f77b4" fill-opacity="1"><title>Cello_Sounds:
1</title></rect>
</g>
<g class="node">
<rect id="r5" class="for_r5" x="296.06762" y="109.48537" height="9.64634" width="12" fill="#ff7f0e" fill-opacity="1"><title>Maddie_Church:
1</title></rect>
</g>
<g class="node">
<rect id="r6" class="for_r6" x="296.06762" y="125.77858" height="9.64634" width="12" fill="#2ca02c" fill-opacity="1"><title>Boys_Bible_time:
1</title></rect>
</g>
<g class="node">
<rect id="r7" class="for_r7" x="296.06762" y="142.0718" height="9.64634" width="12" fill="#d62728" fill-opacity="1"><title>Maddie_tea_date:
1</title></rect>
</g>
<g class="node">
<rect id="r8" class="for_r8" x="296.06762" y="158.36502" height="9.64634" width="12" fill="#9467bd" fill-opacity="1"><title>Boys_Sword_battles:
1</title></rect>
</g>
<g class="node">
<rect id="r9" class="for_r9" x="296.06762" y="174.65823" height="9.64634" width="12" fill="#8c564b" fill-opacity="1"><title>Billiards:
1</title></rect>
</g>
<g class="node">
<rect id="r10" class="for_r10" x="296.06762" y="190.95145" height="9.64634" width="12" fill="#e377c2" fill-opacity="1"><title>Trampoline:
1</title></rect>
</g>
<g class="node">
<rect id="r11" class="for_r11" x="296.06762" y="207.24466" height="9.64634" width="12" fill="#7f7f7f" fill-opacity="1"><title>Carline:
1</title></rect>
</g>
<g class="node">
<rect id="r12" class="for_r12" x="296.06762" y="223.53788" height="9.64634" width="12" fill="#bcbd22" fill-opacity="1"><title>Cuddle_Time_Movie:
1</title></rect>
</g>
<g class="node">
<rect id="r13" class="for_r13" x="296.06762" y="239.8311" height="9.64634" width="12" fill="#17becf" fill-opacity="1"><title>Buffet:
1</title></rect>
</g>
<g class="node">
<rect id="r14" class="for_r14" x="296.06762" y="256.12431" height="9.64634" width="12" fill="#1f77b4" fill-opacity="1"><title>Maddie_Hair:
1</title></rect>
</g>
<g class="node">
<rect id="r15" class="for_r15" x="296.06762" y="272.41753" height="9.64634" width="12" fill="#ff7f0e" fill-opacity="1"><title>Kids_Homework:
1</title></rect>
</g>
<g class="node">
<rect id="r16" class="for_r16" x="0" y="302.0045" height="48.23171" width="12" fill="#2ca02c" fill-opacity="1"><title>Family:
5</title></rect>
</g>
<g class="node">
<rect id="r17" class="for_r17" x="296.06762" y="288.71075" height="9.64634" width="12" fill="#d62728" fill-opacity="1"><title>Mom_Garden:
1</title></rect>
</g>
<g class="node">
<rect id="r18" class="for_r18" x="296.06762" y="305.00396" height="9.64634" width="12" fill="#9467bd" fill-opacity="1"><title>Mom_Art:
1</title></rect>
</g>
<g class="node">
<rect id="r19" class="for_r19" x="296.06762" y="321.29718" height="9.64634" width="12" fill="#8c564b" fill-opacity="1"><title>Mama_Delia:
1</title></rect>
</g>
<g class="node">
<rect id="r20" class="for_r20" x="296.06762" y="337.5904" height="9.64634" width="12" fill="#e377c2" fill-opacity="1"><title>Nephews:
1</title></rect>
</g>
<g class="node">
<rect id="r21" class="for_r21" x="296.06762" y="353.88361" height="9.64634" width="12" fill="#7f7f7f" fill-opacity="1"><title>Brother:
1</title></rect>
</g>
<g class="node">
<rect id="r22" class="for_r22" x="0" y="373.50027" height="19.29268" width="12" fill="#bcbd22" fill-opacity="1"><title>Friends:
2</title></rect>
</g>
<g class="node">
<rect id="r23" class="for_r23" x="296.06762" y="370.17683" height="9.64634" width="12" fill="#17becf" fill-opacity="1"><title>Gift_Painting:
1</title></rect>
</g>
<g class="node">
<rect id="r24" class="for_r24" x="296.06762" y="386.47005" height="9.64634" width="12" fill="#1f77b4" fill-opacity="1"><title>Connect:
1</title></rect>
</g>
<g class="node">
<rect id="r25" class="for_r25" x="0" y="426.02732" height="77.17073" width="12" fill="#ff7f0e" fill-opacity="1"><title>Self:
8</title></rect>
</g>
<g class="node">
<rect id="r26" class="for_r26" x="296.06762" y="402.76326" height="9.64634" width="12" fill="#2ca02c" fill-opacity="1"><title>Dive Physical:
1</title></rect>
</g>
<g class="node">
<rect id="r27" class="for_r27" x="296.06762" y="419.05648" height="9.64634" width="12" fill="#d62728" fill-opacity="1"><title>Run:
1</title></rect>
</g>
<g class="node">
<rect id="r28" class="for_r28" x="296.06762" y="435.3497" height="9.64634" width="12" fill="#9467bd" fill-opacity="1"><title>Physical_Therapy:
1</title></rect>
</g>
<g class="node">
<rect id="r29" class="for_r29" x="296.06762" y="451.64291" height="9.64634" width="12" fill="#8c564b" fill-opacity="1"><title>Dental:
1</title></rect>
</g>
<g class="node">
<rect id="r30" class="for_r30" x="296.06762" y="467.93613" height="9.64634" width="12" fill="#e377c2" fill-opacity="1"><title>Art Therapy:
1</title></rect>
</g>
<g class="node">
<rect id="r31" class="for_r31" x="296.06762" y="484.22934" height="9.64634" width="12" fill="#7f7f7f" fill-opacity="1"><title>Trello_Calendar:
1</title></rect>
</g>
<g class="node">
<rect id="r32" class="for_r32" x="296.06762" y="500.52256" height="9.64634" width="12" fill="#bcbd22" fill-opacity="1"><title>Sankey:
1</title></rect>
</g>
<g class="node">
<rect id="r33" class="for_r33" x="296.06762" y="516.81578" height="9.64634" width="12" fill="#17becf" fill-opacity="1"><title>Instruments:
1</title></rect>
</g>
<g class="node">
<rect id="r34" class="for_r34" x="0" y="546.40274" height="48.23171" width="12" fill="#1f77b4" fill-opacity="1"><title>Business:
5</title></rect>
</g>
<g class="node">
<rect id="r35" class="for_r35" x="296.06762" y="533.10899" height="9.64634" width="12" fill="#ff7f0e" fill-opacity="1"><title>FCB_Biz_acct:
1</title></rect>
</g>
<g class="node">
<rect id="r36" class="for_r36" x="296.06762" y="549.40221" height="9.64634" width="12" fill="#2ca02c" fill-opacity="1"><title>Drive_100K_users:
1</title></rect>
</g>
<g class="node">
<rect id="r37" class="for_r37" x="296.06762" y="565.69543" height="9.64634" width="12" fill="#d62728" fill-opacity="1"><title>Artsy:
1</title></rect>
</g>
<g class="node">
<rect id="r38" class="for_r38" x="296.06762" y="581.98864" height="9.64634" width="12" fill="#9467bd" fill-opacity="1"><title>Roblox:
1</title></rect>
</g>
<g class="node">
<rect id="r39" class="for_r39" x="296.06762" y="598.28186" height="9.64634" width="12" fill="#8c564b" fill-opacity="1"><title>Tax_deductions:
1</title></rect>
</g>
<g class="node">
<rect id="r40" class="for_r40" x="0" y="621.22195" height="28.93902" width="12" fill="#e377c2" fill-opacity="1"><title>Cisco:
3</title></rect>
</g>
<g class="node">
<rect id="r41" class="for_r41" x="296.06762" y="614.57508" height="9.64634" width="12" fill="#7f7f7f" fill-opacity="1"><title>Site_Visit:
1</title></rect>
</g>
<g class="node">
<rect id="r42" class="for_r42" x="296.06762" y="630.86829" height="9.64634" width="12" fill="#bcbd22" fill-opacity="1"><title>Student_lab:
1</title></rect>
</g>
<g class="node">
<rect id="r43" class="for_r43" x="296.06762" y="647.16151" height="9.64634" width="12" fill="#17becf" fill-opacity="1"><title>BIZ_Dinner:
1</title></rect>
</g>
<g class="node">
<rect id="r44" class="for_r44" x="0" y="670.1016" height="28.93902" width="12" fill="#1f77b4" fill-opacity="1"><title>Divorce:
3</title></rect>
</g>
<g class="node">
<rect id="r45" class="for_r45" x="296.06762" y="663.45473" height="9.64634" width="12" fill="#ff7f0e" fill-opacity="1"><title>lender:
1</title></rect>
</g>
<g class="node">
<rect id="r46" class="for_r46" x="296.06762" y="679.74794" height="9.64634" width="12" fill="#2ca02c" fill-opacity="1"><title>Simms_Document:
1</title></rect>
</g>
<g class="node">
<rect id="r47" class="for_r47" x="296.06762" y="696.04116" height="9.64634" width="12" fill="#d62728" fill-opacity="1"><title>Court_date:
1</title></rect>
</g>
<g class="node">
<rect id="r48" class="for_r48" x="592.13524" y="177.25" height="395.5" width="12" fill="#9467bd" fill-opacity="1"><title>Actions Taken:
41</title></rect>
</g>
</g>
<g id="sankey_labels" font-family="sans-serif" font-size="12px" fill="#000000">
<rect id="label0_bg" class="for_r0" x="-27.50938" y="144.97419" width="26.98085" height="36.22801" rx="3" fill="#fff" fill-opacity="0.75" stroke="none" stroke-width="0" stroke-opacity="0"></rect>
<text id="label0" class="for_r0" text-anchor="end" x="-4.725" y="163.18819" font-weight="400" font-size="8.59476px" dy="-7.814">Kids<tspan x="-4.725" dy="19.42801" font-weight="400" font-size="17.06124px">15</tspan></text>
<rect id="label1_bg" class="for_r1" x="214.49575" y="28.74867" width="80.59361" height="40.15402" rx="3" fill="#fff" fill-opacity="0.75" stroke="none" stroke-width="0" stroke-opacity="0"></rect>
<text id="label1" class="for_r1" text-anchor="end" x="291.34262" y="49.13567" font-weight="400" font-size="9.8892px" dy="-8.987">Gaming_Interact<tspan x="291.34262" dy="22.35402" font-weight="400" font-size="19.6308px">1</tspan></text>
<rect id="label2_bg" class="for_r2" x="254.5895" y="45.04189" width="40.30455" height="40.15402" rx="3" fill="#fff" fill-opacity="0.75" stroke="none" stroke-width="0" stroke-opacity="0"></rect>
<text id="label2" class="for_r2" text-anchor="end" x="291.34262" y="65.42889" font-weight="400" font-size="9.8892px" dy="-8.987">Recess<tspan x="291.34262" dy="22.35402" font-weight="400" font-size="19.6308px">1</tspan></text>
<rect id="label3_bg" class="for_r3" x="162.94887" y="61.3351" width="131.94188" height="40.15402" rx="3" fill="#fff" fill-opacity="0.75" stroke="none" stroke-width="0" stroke-opacity="0"></rect>
<text id="label3" class="for_r3" text-anchor="end" x="291.34262" y="81.7221" font-weight="400" font-size="9.8892px" dy="-8.987">Teach_PC_keyboard_knobs<tspan x="291.34262" dy="22.35402" font-weight="400" font-size="19.6308px">1</tspan></text>
<rect id="label4_bg" class="for_r4" x="226.01137" y="77.62832" width="68.87837" height="40.15402" rx="3" fill="#fff" fill-opacity="0.75" stroke="none" stroke-width="0" stroke-opacity="0"></rect>
<text id="label4" class="for_r4" text-anchor="end" x="291.34262" y="98.01532" font-weight="400" font-size="9.8892px" dy="-8.987">Cello_Sounds<tspan x="291.34262" dy="22.35402" font-weight="400" font-size="19.6308px">1</tspan></text>
<rect id="label5_bg" class="for_r5" x="217.79262" y="93.92154" width="77.55369" height="40.15403" rx="3" fill="#fff" fill-opacity="0.75" stroke="none" stroke-width="0" stroke-opacity="0"></rect>
<text id="label5" class="for_r5" text-anchor="end" x="291.34262" y="114.30854" font-weight="400" font-size="9.8892px" dy="-8.987">Maddie_Church<tspan x="291.34262" dy="22.35402" font-weight="400" font-size="19.6308px">1</tspan></text>
<rect id="label6_bg" class="for_r6" x="213.94887" y="110.21475" width="81.39372" height="40.15402" rx="3" fill="#fff" fill-opacity="0.75" stroke="none" stroke-width="0" stroke-opacity="0"></rect>
<text id="label6" class="for_r6" text-anchor="end" x="291.34262" y="130.60175" font-weight="400" font-size="9.8892px" dy="-8.987">Boys_Bible_time<tspan x="291.34262" dy="22.35402" font-weight="400" font-size="19.6308px">1</tspan></text>
<rect id="label7_bg" class="for_r7" x="211.18325" y="126.50797" width="84.16288" height="40.15402" rx="3" fill="#fff" fill-opacity="0.75" stroke="none" stroke-width="0" stroke-opacity="0"></rect>
<text id="label7" class="for_r7" text-anchor="end" x="291.34262" y="146.89497" font-weight="400" font-size="9.8892px" dy="-8.987">Maddie_tea_date<tspan x="291.34262" dy="22.35402" font-weight="400" font-size="19.6308px">1</tspan></text>
<rect id="label8_bg" class="for_r8" x="197.4645" y="142.80119" width="97.42808" height="40.15402" rx="3" fill="#fff" fill-opacity="0.75" stroke="none" stroke-width="0" stroke-opacity="0"></rect>
<text id="label8" class="for_r8" text-anchor="end" x="291.34262" y="163.18819" font-weight="400" font-size="9.8892px" dy="-8.987">Boys_Sword_battles<tspan x="291.34262" dy="22.35402" font-weight="400" font-size="19.6308px">1</tspan></text>
<rect id="label9_bg" class="for_r9" x="252.94887" y="159.0944" width="41.94957" height="40.15402" rx="3" fill="#fff" fill-opacity="0.75" stroke="none" stroke-width="0" stroke-opacity="0"></rect>
<text id="label9" class="for_r9" text-anchor="end" x="291.34262" y="179.4814" font-weight="400" font-size="9.8892px" dy="-8.987">Billiards<tspan x="291.34262" dy="22.35402" font-weight="400" font-size="19.6308px">1</tspan></text>
<rect id="label10_bg" class="for_r10" x="237.48012" y="175.38761" width="57.85783" height="40.15402" rx="3" fill="#fff" fill-opacity="0.75" stroke="none" stroke-width="0" stroke-opacity="0"></rect>
<text id="label10" class="for_r10" text-anchor="end" x="291.34262" y="195.77462" font-weight="400" font-size="9.8892px" dy="-8.987">Trampoline<tspan x="291.34262" dy="22.35402" font-weight="400" font-size="19.6308px">1</tspan></text>
<rect id="label11_bg" class="for_r11" x="256.23012" y="191.68084" width="39.10472" height="40.15402" rx="3" fill="#fff" fill-opacity="0.75" stroke="none" stroke-width="0" stroke-opacity="0"></rect>
<text id="label11" class="for_r11" text-anchor="end" x="291.34262" y="212.06784" font-weight="400" font-size="9.8892px" dy="-8.987">Carline<tspan x="291.34262" dy="22.35402" font-weight="400" font-size="19.6308px">1</tspan></text>
<rect id="label12_bg" class="for_r12" x="197.29262" y="207.97405" width="98.04692" height="40.15402" rx="3" fill="#fff" fill-opacity="0.75" stroke="none" stroke-width="0" stroke-opacity="0"></rect>
<text id="label12" class="for_r12" text-anchor="end" x="291.34262" y="228.36105" font-weight="400" font-size="9.8892px" dy="-8.987">Cuddle_Time_Movie<tspan x="291.34262" dy="22.35402" font-weight="400" font-size="19.6308px">1</tspan></text>
<rect id="label13_bg" class="for_r13" x="261.902" y="224.26727" width="33.1909" height="40.154" rx="3" fill="#fff" fill-opacity="0.75" stroke="none" stroke-width="0" stroke-opacity="0"></rect>
<text id="label13" class="for_r13" text-anchor="end" x="291.34262" y="244.65427" font-weight="400" font-size="9.8892px" dy="-8.987">Buffet<tspan x="291.34262" dy="22.35402" font-weight="400" font-size="19.6308px">1</tspan></text>
<rect id="label14_bg" class="for_r14" x="231.527" y="240.56048" width="64.02382" height="40.154" rx="3" fill="#fff" fill-opacity="0.75" stroke="none" stroke-width="0" stroke-opacity="0"></rect>
<text id="label14" class="for_r14" text-anchor="end" x="291.34262" y="260.94748" font-weight="400" font-size="9.8892px" dy="-8.987">Maddie_Hair<tspan x="291.34262" dy="22.35402" font-weight="400" font-size="19.6308px">1</tspan></text>
<rect id="label15_bg" class="for_r15" x="215.60512" y="256.85369" width="80.28901" height="40.154" rx="3" fill="#fff" fill-opacity="0.75" stroke="none" stroke-width="0" stroke-opacity="0"></rect>
<text id="label15" class="for_r15" text-anchor="end" x="291.34262" y="277.2407" font-weight="400" font-size="9.8892px" dy="-8.987">Kids_Homework<tspan x="291.34262" dy="22.35402" font-weight="400" font-size="19.6308px">1</tspan></text>
<rect id="label16_bg" class="for_r16" x="-36.54062" y="306.15136" width="36.54559" height="39.31804" rx="3" fill="#fff" fill-opacity="0.75" stroke="none" stroke-width="0" stroke-opacity="0"></rect>
<text id="label16" class="for_r16" text-anchor="end" x="-4.725" y="326.12035" font-weight="400" font-size="9.51936px" dy="-8.569">Family<tspan x="-4.725" dy="21.51802" font-weight="400" font-size="18.89664px">5</tspan></text>
<rect id="label17_bg" class="for_r17" x="227.13637" y="273.14691" width="68.20921" height="40.154" rx="3" fill="#fff" fill-opacity="0.75" stroke="none" stroke-width="0" stroke-opacity="0"></rect>
<text id="label17" class="for_r17" text-anchor="end" x="291.34262" y="293.53392" font-weight="400" font-size="9.8892px" dy="-8.987">Mom_Garden<tspan x="291.34262" dy="22.35402" font-weight="400" font-size="19.6308px">1</tspan></text>
<rect id="label18_bg" class="for_r18" x="247.4645" y="289.44012" width="47.62974" height="40.154" rx="3" fill="#fff" fill-opacity="0.75" stroke="none" stroke-width="0" stroke-opacity="0"></rect>
<text id="label18" class="for_r18" text-anchor="end" x="291.34262" y="309.82713" font-weight="400" font-size="9.8892px" dy="-8.987">Mom_Art<tspan x="291.34262" dy="22.35402" font-weight="400" font-size="19.6308px">1</tspan></text>
<rect id="label19_bg" class="for_r19" x="232.07387" y="305.73336" width="63.26436" height="40.154" rx="3" fill="#fff" fill-opacity="0.75" stroke="none" stroke-width="0" stroke-opacity="0"></rect>
<text id="label19" class="for_r19" text-anchor="end" x="291.34262" y="326.12035" font-weight="400" font-size="9.8892px" dy="-8.987">Mama_Delia<tspan x="291.34262" dy="22.35402" font-weight="400" font-size="19.6308px">1</tspan></text>
<rect id="label20_bg" class="for_r20" x="246.3395" y="322.02657" width="48.54915" height="40.154" rx="3" fill="#fff" fill-opacity="0.75" stroke="none" stroke-width="0" stroke-opacity="0"></rect>
<text id="label20" class="for_r20" text-anchor="end" x="291.34262" y="342.41357" font-weight="400" font-size="9.8892px" dy="-8.987">Nephews<tspan x="291.34262" dy="22.35402" font-weight="400" font-size="19.6308px">1</tspan></text>
<rect id="label21_bg" class="for_r21" x="255.13637" y="338.31979" width="40.40931" height="40.154" rx="3" fill="#fff" fill-opacity="0.75" stroke="none" stroke-width="0" stroke-opacity="0"></rect>
<text id="label21" class="for_r21" text-anchor="end" x="291.34262" y="358.70678" font-weight="400" font-size="9.8892px" dy="-8.987">Brother<tspan x="291.34262" dy="22.35402" font-weight="400" font-size="19.6308px">1</tspan></text>
<rect id="label22_bg" class="for_r22" x="-41.18125" y="362.8641" width="40.04942" height="39.94502" rx="3" fill="#fff" fill-opacity="0.75" stroke="none" stroke-width="0" stroke-opacity="0"></rect>
<text id="label22" class="for_r22" text-anchor="end" x="-4.725" y="383.14661" font-weight="400" font-size="9.79674px" dy="-8.88251">Friends<tspan x="-4.725" dy="22.14502" font-weight="400" font-size="19.44726px">2</tspan></text>
<rect id="label23_bg" class="for_r23" x="230.9645" y="354.613" width="64.37394" height="40.154" rx="3" fill="#fff" fill-opacity="0.75" stroke="none" stroke-width="0" stroke-opacity="0"></rect>
<text id="label23" class="for_r23" text-anchor="end" x="291.34262" y="375" font-weight="400" font-size="9.8892px" dy="-8.987">Gift_Painting<tspan x="291.34262" dy="22.35402" font-weight="400" font-size="19.6308px">1</tspan></text>
<rect id="label24_bg" class="for_r24" x="250.73012" y="370.90621" width="44.35411" height="40.154" rx="3" fill="#fff" fill-opacity="0.75" stroke="none" stroke-width="0" stroke-opacity="0"></rect>
<text id="label24" class="for_r24" text-anchor="end" x="291.34262" y="391.29322" font-weight="400" font-size="9.8892px" dy="-8.987">Connect<tspan x="291.34262" dy="22.35402" font-weight="400" font-size="19.6308px">1</tspan></text>
<rect id="label25_bg" class="for_r25" x="-24.44688" y="445.6672" width="24.65466" height="37.69099" rx="3" fill="#fff" fill-opacity="0.75" stroke="none" stroke-width="0" stroke-opacity="0"></rect>
<text id="label25" class="for_r25" text-anchor="end" x="-4.725" y="464.61269" font-weight="400" font-size="9.24198px" dy="-8.54551">Self<tspan x="-4.725" dy="20.89101" font-weight="400" font-size="18.34602px">8</tspan></text>
<rect id="label26_bg" class="for_r26" x="228.23012" y="387.19943" width="66.6125" height="40.154" rx="3" fill="#fff" fill-opacity="0.75" stroke="none" stroke-width="0" stroke-opacity="0"></rect>
<text id="label26" class="for_r26" text-anchor="end" x="291.34262" y="407.58643" font-weight="400" font-size="9.8892px" dy="-8.987">Dive Physical<tspan x="291.34262" dy="22.35402" font-weight="400" font-size="19.6308px">1</tspan></text>
<rect id="label27_bg" class="for_r27" x="269.41762" y="403.49264" width="25.92979" height="40.154" rx="3" fill="#fff" fill-opacity="0.75" stroke="none" stroke-width="0" stroke-opacity="0"></rect>
<text id="label27" class="for_r27" text-anchor="end" x="291.34262" y="423.87965" font-weight="400" font-size="9.8892px" dy="-8.987">Run<tspan x="291.34262" dy="22.35402" font-weight="400" font-size="19.6308px">1</tspan></text>
<rect id="label28_bg" class="for_r28" x="209.01137" y="419.78588" width="86.88853" height="40.154" rx="3" fill="#fff" fill-opacity="0.75" stroke="none" stroke-width="0" stroke-opacity="0"></rect>
<text id="label28" class="for_r28" text-anchor="end" x="291.34262" y="440.17287" font-weight="400" font-size="9.8892px" dy="-8.987">Physical_Therapy<tspan x="291.34262" dy="22.35402" font-weight="400" font-size="19.6308px">1</tspan></text>
<rect id="label29_bg" class="for_r29" x="258.98012" y="436.0791" width="35.8625" height="40.154" rx="3" fill="#fff" fill-opacity="0.75" stroke="none" stroke-width="0" stroke-opacity="0"></rect>
<text id="label29" class="for_r29" text-anchor="end" x="291.34262" y="456.46608" font-weight="400" font-size="9.8892px" dy="-8.987">Dental<tspan x="291.34262" dy="22.35402" font-weight="400" font-size="19.6308px">1</tspan></text>
<rect id="label30_bg" class="for_r30" x="235.10512" y="452.37231" width="60.79579" height="40.154" rx="3" fill="#fff" fill-opacity="0.75" stroke="none" stroke-width="0" stroke-opacity="0"></rect>
<text id="label30" class="for_r30" text-anchor="end" x="291.34262" y="472.7593" font-weight="400" font-size="9.8892px" dy="-8.987">Art Therapy<tspan x="291.34262" dy="22.35402" font-weight="400" font-size="19.6308px">1</tspan></text>
<rect id="label31_bg" class="for_r31" x="216.60512" y="468.66552" width="78.93687" height="40.154" rx="3" fill="#fff" fill-opacity="0.75" stroke="none" stroke-width="0" stroke-opacity="0"></rect>
<text id="label31" class="for_r31" text-anchor="end" x="291.34262" y="489.05252" font-weight="400" font-size="9.8892px" dy="-8.987">Trello_Calendar<tspan x="291.34262" dy="22.35402" font-weight="400" font-size="19.6308px">1</tspan></text>
<rect id="label32_bg" class="for_r32" x="254.57387" y="484.95873" width="41.31419" height="40.15403" rx="3" fill="#fff" fill-opacity="0.75" stroke="none" stroke-width="0" stroke-opacity="0"></rect>
<text id="label32" class="for_r32" text-anchor="end" x="291.34262" y="505.34573" font-weight="400" font-size="9.8892px" dy="-8.987">Sankey<tspan x="291.34262" dy="22.35402" font-weight="400" font-size="19.6308px">1</tspan></text>
<rect id="label33_bg" class="for_r33" x="235.91762" y="501.25198" width="58.97429" height="40.154" rx="3" fill="#fff" fill-opacity="0.75" stroke="none" stroke-width="0" stroke-opacity="0"></rect>
<text id="label33" class="for_r33" text-anchor="end" x="291.34262" y="521.63895" font-weight="400" font-size="9.8892px" dy="-8.987">Instruments<tspan x="291.34262" dy="22.35402" font-weight="400" font-size="19.6308px">1</tspan></text>
<rect id="label34_bg" class="for_r34" x="-47.11875" y="550.54958" width="46.37812" height="39.31807" rx="3" fill="#fff" fill-opacity="0.75" stroke="none" stroke-width="0" stroke-opacity="0"></rect>
<text id="label34" class="for_r34" text-anchor="end" x="-4.725" y="570.5186" font-weight="400" font-size="9.51936px" dy="-8.569">Business<tspan x="-4.725" dy="21.51802" font-weight="400" font-size="18.89664px">5</tspan></text>
<rect id="label35_bg" class="for_r35" x="224.93325" y="517.54519" width="70.14915" height="40.154" rx="3" fill="#fff" fill-opacity="0.75" stroke="none" stroke-width="0" stroke-opacity="0"></rect>
<text id="label35" class="for_r35" text-anchor="end" x="291.34262" y="537.93216" font-weight="400" font-size="9.8892px" dy="-8.987">FCB_Biz_acct<tspan x="291.34262" dy="22.35402" font-weight="400" font-size="19.6308px">1</tspan></text>
<rect id="label36_bg" class="for_r36" x="206.26137" y="533.8384" width="88.63835" height="40.154" rx="3" fill="#fff" fill-opacity="0.75" stroke="none" stroke-width="0" stroke-opacity="0"></rect>
<text id="label36" class="for_r36" text-anchor="end" x="291.34262" y="554.22538" font-weight="400" font-size="9.8892px" dy="-8.987">Drive_100K_users<tspan x="291.34262" dy="22.35402" font-weight="400" font-size="19.6308px">1</tspan></text>
<rect id="label37_bg" class="for_r37" x="264.027" y="550.13162" width="31.86497" height="40.154" rx="3" fill="#fff" fill-opacity="0.75" stroke="none" stroke-width="0" stroke-opacity="0"></rect>
<text id="label37" class="for_r37" text-anchor="end" x="291.34262" y="570.5186" font-weight="400" font-size="9.8892px" dy="-8.987">Artsy<tspan x="291.34262" dy="22.35402" font-weight="400" font-size="19.6308px">1</tspan></text>
<rect id="label38_bg" class="for_r38" x="256.777" y="566.42483" width="39.11436" height="40.154" rx="3" fill="#fff" fill-opacity="0.75" stroke="none" stroke-width="0" stroke-opacity="0"></rect>
<text id="label38" class="for_r38" text-anchor="end" x="291.34262" y="586.81181" font-weight="400" font-size="9.8892px" dy="-8.987">Roblox<tspan x="291.34262" dy="22.35402" font-weight="400" font-size="19.6308px">1</tspan></text>
<rect id="label39_bg" class="for_r39" x="217.87075" y="582.71804" width="77.01823" height="40.154" rx="3" fill="#fff" fill-opacity="0.75" stroke="none" stroke-width="0" stroke-opacity="0"></rect>
<text id="label39" class="for_r39" text-anchor="end" x="291.34262" y="603.10503" font-weight="400" font-size="9.8892px" dy="-8.987">Tax_deductions<tspan x="291.34262" dy="22.35402" font-weight="400" font-size="19.6308px">1</tspan></text>
<rect id="label40_bg" class="for_r40" x="-32.79063" y="615.51345" width="32.16003" height="39.73604" rx="3" fill="#fff" fill-opacity="0.75" stroke="none" stroke-width="0" stroke-opacity="0"></rect>
<text id="label40" class="for_r40" text-anchor="end" x="-4.725" y="635.69146" font-weight="400" font-size="9.70428px" dy="-8.77802">Cisco<tspan x="-4.725" dy="21.93602" font-weight="400" font-size="19.26372px">3</tspan></text>
<rect id="label41_bg" class="for_r41" x="246.527" y="599.01125" width="48.5608" height="40.154" rx="3" fill="#fff" fill-opacity="0.75" stroke="none" stroke-width="0" stroke-opacity="0"></rect>
<text id="label41" class="for_r41" text-anchor="end" x="291.34262" y="619.39825" font-weight="400" font-size="9.8892px" dy="-8.987">Site_Visit<tspan x="291.34262" dy="22.35402" font-weight="400" font-size="19.6308px">1</tspan></text>
<rect id="label42_bg" class="for_r42" x="234.79262" y="615.30447" width="60.54353" height="40.154" rx="3" fill="#fff" fill-opacity="0.75" stroke="none" stroke-width="0" stroke-opacity="0"></rect>
<text id="label42" class="for_r42" text-anchor="end" x="291.34262" y="635.69146" font-weight="400" font-size="9.8892px" dy="-8.987">Student_lab<tspan x="291.34262" dy="22.35402" font-weight="400" font-size="19.6308px">1</tspan></text>
<rect id="label43_bg" class="for_r43" x="237.55825" y="631.59768" width="57.97911" height="40.154" rx="3" fill="#fff" fill-opacity="0.75" stroke="none" stroke-width="0" stroke-opacity="0"></rect>
<text id="label43" class="for_r43" text-anchor="end" x="291.34262" y="651.98468" font-weight="400" font-size="9.8892px" dy="-8.987">BIZ_Dinner<tspan x="291.34262" dy="22.35402" font-weight="400" font-size="19.6308px">1</tspan></text>
<rect id="label44_bg" class="for_r44" x="-41.41562" y="664.39309" width="40.78486" height="39.73604" rx="3" fill="#fff" fill-opacity="0.75" stroke="none" stroke-width="0" stroke-opacity="0"></rect>
<text id="label44" class="for_r44" text-anchor="end" x="-4.725" y="684.57111" font-weight="400" font-size="9.70428px" dy="-8.77802">Divorce<tspan x="-4.725" dy="21.93602" font-weight="400" font-size="19.26372px">3</tspan></text>
<rect id="label45_bg" class="for_r45" x="260.07387" y="647.89089" width="35.47413" height="40.154" rx="3" fill="#fff" fill-opacity="0.75" stroke="none" stroke-width="0" stroke-opacity="0"></rect>
<text id="label45" class="for_r45" text-anchor="end" x="291.34262" y="668.2779" font-weight="400" font-size="9.8892px" dy="-8.987">lender<tspan x="291.34262" dy="22.35402" font-weight="400" font-size="19.6308px">1</tspan></text>
<rect id="label46_bg" class="for_r46" x="206.82387" y="664.18411" width="88.26408" height="40.154" rx="3" fill="#fff" fill-opacity="0.75" stroke="none" stroke-width="0" stroke-opacity="0"></rect>
<text id="label46" class="for_r46" text-anchor="end" x="291.34262" y="684.57111" font-weight="400" font-size="9.8892px" dy="-8.987">Simms_Document<tspan x="291.34262" dy="22.35402" font-weight="400" font-size="19.6308px">1</tspan></text>
<rect id="label47_bg" class="for_r47" x="238.652" y="680.47732" width="56.68901" height="40.154" rx="3" fill="#fff" fill-opacity="0.75" stroke="none" stroke-width="0" stroke-opacity="0"></rect>
<text id="label47" class="for_r47" text-anchor="end" x="291.34262" y="700.86433" font-weight="400" font-size="9.8892px" dy="-8.987">Court_date<tspan x="291.34262" dy="22.35402" font-weight="400" font-size="19.6308px">1</tspan></text>
<rect id="label48_bg" class="for_r48" x="604.36023" y="360.63302" width="47.28187" height="27.79396" rx="3" fill="#fff" fill-opacity="0.75" stroke="none" stroke-width="0" stroke-opacity="0"></rect>
<text id="label48" class="for_r48" text-anchor="start" x="608.86024" y="375" font-weight="400" font-size="6.1908px" dy="-5.96699">Actions Taken<tspan x="608.86024" dy="13.99398" font-weight="400" font-size="12.2892px">41</tspan></text>
</g>
</g></svg>