<svg height="750" width="700" xmlns="http://www.w3.org/2000/svg">
<title>Your Diagram Title</title>
<!-- Generated with SankeyMATIC: 4/14/2025, 4:28:14 PM -->
<rect height="750" width="700" fill="#ffffff"></rect>
<g transform="translate(47.25117,0)">
<g id="sankey_flows">
<path id="flow0" d="M12 95.63307C154.06049 95.63307 154.06049 49.13567 296.12098 49.13567" fill="none" stroke-width="9.64634" stroke="#e377c2" opacity="0.45"><title>Kids → Gaming_Interact: 1</title></path>
<path id="flow1" d="M12 105.27941C154.06049 105.27941 154.06049 65.42889 296.12098 65.42889" fill="none" stroke-width="9.64634" stroke="#e377c2" opacity="0.45"><title>Kids → Recess: 1</title></path>
<path id="flow2" d="M12 114.92576C154.06049 114.92576 154.06049 81.7221 296.12098 81.7221" fill="none" stroke-width="9.64634" stroke="#e377c2" opacity="0.45"><title>Kids → Teach_PC_keyboard_knobs: 1</title></path>
<path id="flow3" d="M12 124.5721C154.06049 124.5721 154.06049 98.01532 296.12098 98.01532" fill="none" stroke-width="9.64634" stroke="#e377c2" opacity="0.45"><title>Kids → Cello_Sounds: 1</title></path>
<path id="flow4" d="M12 134.21844C154.06049 134.21844 154.06049 114.30854 296.12098 114.30854" fill="none" stroke-width="9.64634" stroke="#e377c2" opacity="0.45"><title>Kids → Maddie_Church: 1</title></path>
<path id="flow5" d="M12 143.86478C154.06049 143.86478 154.06049 130.60175 296.12098 130.60175" fill="none" stroke-width="9.64634" stroke="#e377c2" opacity="0.45"><title>Kids → Boys_Bible_time: 1</title></path>
<path id="flow6" d="M12 153.51112C154.06049 153.51112 154.06049 146.89497 296.12098 146.89497" fill="none" stroke-width="9.64634" stroke="#e377c2" opacity="0.45"><title>Kids → Maddie_tea_date: 1</title></path>
<path id="flow7" d="M12 158.33429v9.64634L296.12098 168.01136v-9.64634z" fill="#e377c2" stroke-width="0.5" stroke="#e377c2" opacity="0.45"><title>Kids → Boys_Sword_battles: 1</title></path>
<path id="flow8" d="M12 172.8038C154.06049 172.8038 154.06049 179.4814 296.12098 179.4814" fill="none" stroke-width="9.64634" stroke="#e377c2" opacity="0.45"><title>Kids → Billiards: 1</title></path>
<path id="flow9" d="M12 182.45015C154.06049 182.45015 154.06049 195.77462 296.12098 195.77462" fill="none" stroke-width="9.64634" stroke="#e377c2" opacity="0.45"><title>Kids → Trampoline: 1</title></path>
<path id="flow10" d="M12 192.09649C154.06049 192.09649 154.06049 212.06784 296.12098 212.06784" fill="none" stroke-width="9.64634" stroke="#e377c2" opacity="0.45"><title>Kids → Carline: 1</title></path>
<path id="flow11" d="M12 201.74283C154.06049 201.74283 154.06049 228.36105 296.12098 228.36105" fill="none" stroke-width="9.64634" stroke="#e377c2" opacity="0.45"><title>Kids → Cuddle_Time_Movie: 1</title></path>
<path id="flow12" d="M12 211.38917C154.06049 211.38917 154.06049 244.65427 296.12098 244.65427" fill="none" stroke-width="9.64634" stroke="#e377c2" opacity="0.45"><title>Kids → Buffet: 1</title></path>
<path id="flow13" d="M12 221.03551C154.06049 221.03551 154.06049 260.94748 296.12098 260.94748" fill="none" stroke-width="9.64634" stroke="#e377c2" opacity="0.45"><title>Kids → Maddie_Hair: 1</title></path>
<path id="flow14" d="M12 230.68185C154.06049 230.68185 154.06049 277.2407 296.12098 277.2407" fill="none" stroke-width="9.64634" stroke="#e377c2" opacity="0.45"><title>Kids → Kids_Homework: 1</title></path>
<path id="flow15" d="M12 321.26646v9.64634L296.12098 330.94352v-9.64634z" fill="#2ca02c" stroke-width="0.5" stroke="#2ca02c" opacity="0.45"><title>Family → Mom_Garden: 1</title></path>
<path id="flow16" d="M12 335.73597C154.06049 335.73597 154.06049 342.41357 296.12098 342.41357" fill="none" stroke-width="9.64634" stroke="#2ca02c" opacity="0.45"><title>Family → Mom_Art: 1</title></path>
<path id="flow17" d="M12 345.38231C154.06049 345.38231 154.06049 358.70678 296.12098 358.70678" fill="none" stroke-width="9.64634" stroke="#2ca02c" opacity="0.45"><title>Family → Mama_Delia: 1</title></path>
<path id="flow18" d="M12 306.79695C154.06049 306.79695 154.06049 293.53392 296.12098 293.53392" fill="none" stroke-width="9.64634" stroke="#2ca02c" opacity="0.45"><title>Family → Nephews: 1</title></path>
<path id="flow19" d="M12 316.44329C154.06049 316.44329 154.06049 309.82713 296.12098 309.82713" fill="none" stroke-width="9.64634" stroke="#2ca02c" opacity="0.45"><title>Family → Brother: 1</title></path>
<path id="flow20" d="M12 378.29271C154.06049 378.29271 154.06049 375 296.12098 375" fill="none" stroke-width="9.64634" stroke="#bcbd22" opacity="0.45"><title>Friends → Gift_Painting: 1</title></path>
<path id="flow21" d="M12 387.93906C154.06049 387.93906 154.06049 391.29322 296.12098 391.29322" fill="none" stroke-width="9.64634" stroke="#bcbd22" opacity="0.45"><title>Friends → Connect: 1</title></path>
<path id="flow22" d="M12 443.78955C154.06049 443.78955 154.06049 423.87965 296.12098 423.87965" fill="none" stroke-width="9.64634" stroke="#ff7f0e" opacity="0.45"><title>Self → Dive Physical: 1</title></path>
<path id="flow23" d="M12 453.43589C154.06049 453.43589 154.06049 440.17287 296.12098 440.17287" fill="none" stroke-width="9.64634" stroke="#ff7f0e" opacity="0.45"><title>Self → Run: 1</title></path>
<path id="flow24" d="M12 463.08223C154.06049 463.08223 154.06049 456.46608 296.12098 456.46608" fill="none" stroke-width="9.64634" stroke="#ff7f0e" opacity="0.45"><title>Self → Physical_Therapy: 1</title></path>
<path id="flow25" d="M12 467.90541v9.64634L296.12098 477.58247v-9.64634z" fill="#ff7f0e" stroke-width="0.5" stroke="#ff7f0e" opacity="0.45"><title>Self → Dental: 1</title></path>
<path id="flow26" d="M12 501.6676C154.06049 501.6676 154.06049 521.63895 296.12098 521.63895" fill="none" stroke-width="9.64634" stroke="#ff7f0e" opacity="0.45"><title>Self → Art Therapy: 1</title></path>
<path id="flow27" d="M12 482.37492C154.06049 482.37492 154.06049 489.05252 296.12098 489.05252" fill="none" stroke-width="9.64634" stroke="#ff7f0e" opacity="0.45"><title>Self → Trello_Calendar: 1</title></path>
<path id="flow28" d="M12 492.02126C154.06049 492.02126 154.06049 505.34573 296.12098 505.34573" fill="none" stroke-width="9.64634" stroke="#ff7f0e" opacity="0.45"><title>Self → Sankey: 1</title></path>
<path id="flow29" d="M12 551.19519C154.06049 551.19519 154.06049 537.93216 296.12098 537.93216" fill="none" stroke-width="9.64634" stroke="#17becf" opacity="0.45"><title>Business → FCB_Biz_acct: 1</title></path>
<path id="flow30" d="M12 560.84153C154.06049 560.84153 154.06049 554.22538 296.12098 554.22538" fill="none" stroke-width="9.64634" stroke="#17becf" opacity="0.45"><title>Business → Drive_100K_users: 1</title></path>
<path id="flow31" d="M12 565.6647v9.64634L296.12098 575.34177v-9.64634z" fill="#17becf" stroke-width="0.5" stroke="#17becf" opacity="0.45"><title>Business → Artsy: 1</title></path>
<path id="flow32" d="M12 580.13422C154.06049 580.13422 154.06049 586.81181 296.12098 586.81181" fill="none" stroke-width="9.64634" stroke="#17becf" opacity="0.45"><title>Business → Roblox: 1</title></path>
<path id="flow33" d="M12 589.78056C154.06049 589.78056 154.06049 603.10503 296.12098 603.10503" fill="none" stroke-width="9.64634" stroke="#17becf" opacity="0.45"><title>Business → Tax_deductions: 1</title></path>
<path id="flow34" d="M12 626.0144C154.06049 626.0144 154.06049 619.39825 296.12098 619.39825" fill="none" stroke-width="9.64634" stroke="#8c564b" opacity="0.45"><title>Cisco → Site_Visit: 1</title></path>
<path id="flow35" d="M12 630.83757v9.64634L296.12098 640.51463v-9.64634z" fill="#8c564b" stroke-width="0.5" stroke="#8c564b" opacity="0.45"><title>Cisco → Student_lab: 1</title></path>
<path id="flow36" d="M12 645.30708C154.06049 645.30708 154.06049 651.98468 296.12098 651.98468" fill="none" stroke-width="9.64634" stroke="#8c564b" opacity="0.45"><title>Cisco → BIZ_Dinner: 1</title></path>
<path id="flow37" d="M12 674.89405C154.06049 674.89405 154.06049 668.2779 296.12098 668.2779" fill="none" stroke-width="9.64634" stroke="#17becf" opacity="0.45"><title>Divorce → lender: 1</title></path>
<path id="flow38" d="M12 679.71722v9.64634L296.12098 689.39428v-9.64634z" fill="#17becf" stroke-width="0.5" stroke="#17becf" opacity="0.45"><title>Divorce → Simms_Document: 1</title></path>
<path id="flow39" d="M12 694.18673C154.06049 694.18673 154.06049 700.86433 296.12098 700.86433" fill="none" stroke-width="9.64634" stroke="#17becf" opacity="0.45"><title>Divorce → Court_date: 1</title></path>
<path id="flow40" d="M308.12098 49.13567C450.18147 49.13567 450.18147 196.47193 592.24196 196.47193" fill="none" stroke-width="9.64634" stroke="#d62728" opacity="0.45"><title>Gaming_Interact → Actions Taken: 1</title></path>
<path id="flow41" d="M308.12098 65.42889C450.18147 65.42889 450.18147 206.11827 592.24196 206.11827" fill="none" stroke-width="9.64634" stroke="#d62728" opacity="0.45"><title>Recess → Actions Taken: 1</title></path>
<path id="flow42" d="M308.12098 375C450.18147 375 450.18147 370.10608 592.24196 370.10608" fill="none" stroke-width="9.64634" stroke="#d62728" opacity="0.45"><title>Gift_Painting → Actions Taken: 1</title></path>
<path id="flow43" d="M308.12098 391.29322C450.18147 391.29322 450.18147 379.75242 592.24196 379.75242" fill="none" stroke-width="9.64634" stroke="#d62728" opacity="0.45"><title>Connect → Actions Taken: 1</title></path>
<path id="flow44" d="M308.12098 423.87965C450.18147 423.87965 450.18147 399.0451 592.24196 399.0451" fill="none" stroke-width="9.64634" stroke="#d62728" opacity="0.45"><title>Dive Physical → Actions Taken: 1</title></path>
<path id="flow45" d="M308.12098 537.93216C450.18147 537.93216 450.18147 456.92315 592.24196 456.92315" fill="none" stroke-width="9.64634" stroke="#d62728" opacity="0.45"><title>FCB_Biz_acct → Actions Taken: 1</title></path>
<path id="flow46" d="M308.12098 81.7221C450.18147 81.7221 450.18147 215.76461 592.24196 215.76461" fill="none" stroke-width="9.64634" stroke="#d62728" opacity="0.45"><title>Teach_PC_keyboard_knobs → Actions Taken: 1</title></path>
<path id="flow47" d="M308.12098 440.17287C450.18147 440.17287 450.18147 408.69144 592.24196 408.69144" fill="none" stroke-width="9.64634" stroke="#d62728" opacity="0.45"><title>Run → Actions Taken: 1</title></path>
<path id="flow48" d="M308.12098 98.01532C450.18147 98.01532 450.18147 225.41096 592.24196 225.41096" fill="none" stroke-width="9.64634" stroke="#d62728" opacity="0.45"><title>Cello_Sounds → Actions Taken: 1</title></path>
<path id="flow49" d="M308.12098 114.30854C450.18147 114.30854 450.18147 235.0573 592.24196 235.0573" fill="none" stroke-width="9.64634" stroke="#d62728" opacity="0.45"><title>Maddie_Church → Actions Taken: 1</title></path>
<path id="flow50" d="M308.12098 130.60175C450.18147 130.60175 450.18147 244.70364 592.24196 244.70364" fill="none" stroke-width="9.64634" stroke="#d62728" opacity="0.45"><title>Boys_Bible_time → Actions Taken: 1</title></path>
<path id="flow51" d="M308.12098 146.89497C450.18147 146.89497 450.18147 254.34998 592.24196 254.34998" fill="none" stroke-width="9.64634" stroke="#d62728" opacity="0.45"><title>Maddie_tea_date → Actions Taken: 1</title></path>
<path id="flow52" d="M308.12098 163.18819C450.18147 163.18819 450.18147 263.99632 592.24196 263.99632" fill="none" stroke-width="9.64634" stroke="#d62728" opacity="0.45"><title>Boys_Sword_battles → Actions Taken: 1</title></path>
<path id="flow53" d="M308.12098 179.4814C450.18147 179.4814 450.18147 273.64266 592.24196 273.64266" fill="none" stroke-width="9.64634" stroke="#d62728" opacity="0.45"><title>Billiards → Actions Taken: 1</title></path>
<path id="flow54" d="M308.12098 195.77462C450.18147 195.77462 450.18147 283.289 592.24196 283.289" fill="none" stroke-width="9.64634" stroke="#d62728" opacity="0.45"><title>Trampoline → Actions Taken: 1</title></path>
<path id="flow55" d="M308.12098 456.46608C450.18147 456.46608 450.18147 418.33779 592.24196 418.33779" fill="none" stroke-width="9.64634" stroke="#d62728" opacity="0.45"><title>Physical_Therapy → Actions Taken: 1</title></path>
<path id="flow56" d="M308.12098 212.06784C450.18147 212.06784 450.18147 292.93535 592.24196 292.93535" fill="none" stroke-width="9.64634" stroke="#d62728" opacity="0.45"><title>Carline → Actions Taken: 1</title></path>
<path id="flow57" d="M308.12098 228.36105C450.18147 228.36105 450.18147 302.58169 592.24196 302.58169" fill="none" stroke-width="9.64634" stroke="#d62728" opacity="0.45"><title>Cuddle_Time_Movie → Actions Taken: 1</title></path>
<path id="flow58" d="M308.12098 554.22538C450.18147 554.22538 450.18147 466.56949 592.24196 466.56949" fill="none" stroke-width="9.64634" stroke="#d62728" opacity="0.45"><title>Drive_100K_users → Actions Taken: 1</title></path>
<path id="flow59" d="M308.12098 570.5186C450.18147 570.5186 450.18147 476.21583 592.24196 476.21583" fill="none" stroke-width="9.64634" stroke="#d62728" opacity="0.45"><title>Artsy → Actions Taken: 1</title></path>
<path id="flow60" d="M308.12098 586.81181C450.18147 586.81181 450.18147 485.86218 592.24196 485.86218" fill="none" stroke-width="9.64634" stroke="#d62728" opacity="0.45"><title>Roblox → Actions Taken: 1</title></path>
<path id="flow61" d="M308.12098 244.65427C450.18147 244.65427 450.18147 312.22803 592.24196 312.22803" fill="none" stroke-width="9.64634" stroke="#d62728" opacity="0.45"><title>Buffet → Actions Taken: 1</title></path>
<path id="flow62" d="M308.12098 260.94748C450.18147 260.94748 450.18147 321.87437 592.24196 321.87437" fill="none" stroke-width="9.64634" stroke="#d62728" opacity="0.45"><title>Maddie_Hair → Actions Taken: 1</title></path>
<path id="flow63" d="M308.12098 619.39825C450.18147 619.39825 450.18147 505.15486 592.24196 505.15486" fill="none" stroke-width="9.64634" stroke="#d62728" opacity="0.45"><title>Site_Visit → Actions Taken: 1</title></path>
<path id="flow64" d="M308.12098 277.2407C450.18147 277.2407 450.18147 331.52071 592.24196 331.52071" fill="none" stroke-width="9.64634" stroke="#d62728" opacity="0.45"><title>Kids_Homework → Actions Taken: 1</title></path>
<path id="flow65" d="M308.12098 668.2779C450.18147 668.2779 450.18147 534.09388 592.24196 534.09388" fill="none" stroke-width="9.64634" stroke="#d62728" opacity="0.45"><title>lender → Actions Taken: 1</title></path>
<path id="flow66" d="M308.12098 603.10503C450.18147 603.10503 450.18147 495.50852 592.24196 495.50852" fill="none" stroke-width="9.64634" stroke="#d62728" opacity="0.45"><title>Tax_deductions → Actions Taken: 1</title></path>
<path id="flow67" d="M308.12098 635.69146C450.18147 635.69146 450.18147 514.8012 592.24196 514.8012" fill="none" stroke-width="9.64634" stroke="#d62728" opacity="0.45"><title>Student_lab → Actions Taken: 1</title></path>
<path id="flow68" d="M308.12098 651.98468C450.18147 651.98468 450.18147 524.44754 592.24196 524.44754" fill="none" stroke-width="9.64634" stroke="#d62728" opacity="0.45"><title>BIZ_Dinner → Actions Taken: 1</title></path>
<path id="flow69" d="M308.12098 684.57111C450.18147 684.57111 450.18147 543.74022 592.24196 543.74022" fill="none" stroke-width="9.64634" stroke="#d62728" opacity="0.45"><title>Simms_Document → Actions Taken: 1</title></path>
<path id="flow70" d="M308.12098 700.86433C450.18147 700.86433 450.18147 553.38657 592.24196 553.38657" fill="none" stroke-width="9.64634" stroke="#d62728" opacity="0.45"><title>Court_date → Actions Taken: 1</title></path>
<path id="flow71" d="M308.12098 472.7593C450.18147 472.7593 450.18147 427.98413 592.24196 427.98413" fill="none" stroke-width="9.64634" stroke="#d62728" opacity="0.45"><title>Dental → Actions Taken: 1</title></path>
<path id="flow72" d="M308.12098 407.58643C450.18147 407.58643 450.18147 389.39876 592.24196 389.39876" fill="none" stroke-width="9.64634" stroke="#d62728" opacity="0.45"><title>Art → Actions Taken: 1</title></path>
<path id="flow73" d="M308.12098 489.05252C450.18147 489.05252 450.18147 437.63047 592.24196 437.63047" fill="none" stroke-width="9.64634" stroke="#d62728" opacity="0.45"><title>Trello_Calendar → Actions Taken: 1</title></path>
<path id="flow74" d="M308.12098 505.34573C450.18147 505.34573 450.18147 447.27681 592.24196 447.27681" fill="none" stroke-width="9.64634" stroke="#d62728" opacity="0.45"><title>Sankey → Actions Taken: 1</title></path>
<path id="flow75" d="M308.12098 326.12035C450.18147 326.12035 450.18147 341.16705 592.24196 341.16705" fill="none" stroke-width="9.64634" stroke="#d62728" opacity="0.45"><title>Mom_Garden → Actions Taken: 1</title></path>
<path id="flow76" d="M308.12098 342.41357C450.18147 342.41357 450.18147 350.8134 592.24196 350.8134" fill="none" stroke-width="9.64634" stroke="#d62728" opacity="0.45"><title>Mom_Art → Actions Taken: 1</title></path>
<path id="flow77" d="M308.12098 353.88361v9.64634L592.24196 365.28291v-9.64634z" fill="#d62728" stroke-width="0.5" stroke="#d62728" opacity="0.45"><title>Mama_Delia → Actions Taken: 1</title></path>
</g>
<g id="sankey_nodes">
<g class="node">
<rect id="r0" class="for_r0" x="0" y="90.8099" height="144.69512" width="12" fill="#e377c2" fill-opacity="1"><title>Kids:
15</title></rect>
</g>
<g class="node">
<rect id="r1" class="for_r1" x="296.12098" y="44.3125" height="9.64634" width="12" fill="#7f7f7f" fill-opacity="1"><title>Gaming_Interact:
1</title></rect>
</g>
<g class="node">
<rect id="r2" class="for_r2" x="296.12098" y="60.60572" height="9.64634" width="12" fill="#bcbd22" fill-opacity="1"><title>Recess:
1</title></rect>
</g>
<g class="node">
<rect id="r3" class="for_r3" x="296.12098" y="76.89893" height="9.64634" width="12" fill="#17becf" fill-opacity="1"><title>Teach_PC_keyboard_knobs:
1</title></rect>
</g>
<g class="node">
<rect id="r4" class="for_r4" x="296.12098" y="93.19215" height="9.64634" width="12" fill="#1f77b4" fill-opacity="1"><title>Cello_Sounds:
1</title></rect>
</g>
<g class="node">
<rect id="r5" class="for_r5" x="296.12098" y="109.48537" height="9.64634" width="12" fill="#ff7f0e" fill-opacity="1"><title>Maddie_Church:
1</title></rect>
</g>
<g class="node">
<rect id="r6" class="for_r6" x="296.12098" y="125.77858" height="9.64634" width="12" fill="#2ca02c" fill-opacity="1"><title>Boys_Bible_time:
1</title></rect>
</g>
<g class="node">
<rect id="r7" class="for_r7" x="296.12098" y="142.0718" height="9.64634" width="12" fill="#d62728" fill-opacity="1"><title>Maddie_tea_date:
1</title></rect>
</g>
<g class="node">
<rect id="r8" class="for_r8" x="296.12098" y="158.36502" height="9.64634" width="12" fill="#9467bd" fill-opacity="1"><title>Boys_Sword_battles:
1</title></rect>
</g>
<g class="node">
<rect id="r9" class="for_r9" x="296.12098" y="174.65823" height="9.64634" width="12" fill="#8c564b" fill-opacity="1"><title>Billiards:
1</title></rect>
</g>
<g class="node">
<rect id="r10" class="for_r10" x="296.12098" y="190.95145" height="9.64634" width="12" fill="#e377c2" fill-opacity="1"><title>Trampoline:
1</title></rect>
</g>
<g class="node">
<rect id="r11" class="for_r11" x="296.12098" y="207.24466" height="9.64634" width="12" fill="#7f7f7f" fill-opacity="1"><title>Carline:
1</title></rect>
</g>
<g class="node">
<rect id="r12" class="for_r12" x="296.12098" y="223.53788" height="9.64634" width="12" fill="#bcbd22" fill-opacity="1"><title>Cuddle_Time_Movie:
1</title></rect>
</g>
<g class="node">
<rect id="r13" class="for_r13" x="296.12098" y="239.8311" height="9.64634" width="12" fill="#17becf" fill-opacity="1"><title>Buffet:
1</title></rect>
</g>
<g class="node">
<rect id="r14" class="for_r14" x="296.12098" y="256.12431" height="9.64634" width="12" fill="#1f77b4" fill-opacity="1"><title>Maddie_Hair:
1</title></rect>
</g>
<g class="node">
<rect id="r15" class="for_r15" x="296.12098" y="272.41753" height="9.64634" width="12" fill="#ff7f0e" fill-opacity="1"><title>Kids_Homework:
1</title></rect>
</g>
<g class="node">
<rect id="r16" class="for_r16" x="0" y="301.97377" height="48.23171" width="12" fill="#2ca02c" fill-opacity="1"><title>Family:
5</title></rect>
</g>
<g class="node">
<rect id="r17" class="for_r17" x="296.12098" y="321.29718" height="9.64634" width="12" fill="#d62728" fill-opacity="1"><title>Mom_Garden:
1</title></rect>
</g>
<g class="node">
<rect id="r18" class="for_r18" x="296.12098" y="337.5904" height="9.64634" width="12" fill="#9467bd" fill-opacity="1"><title>Mom_Art:
1</title></rect>
</g>
<g class="node">
<rect id="r19" class="for_r19" x="296.12098" y="353.88361" height="9.64634" width="12" fill="#8c564b" fill-opacity="1"><title>Mama_Delia:
1</title></rect>
</g>
<g class="node">
<rect id="r20" class="for_r20" x="296.12098" y="288.71075" height="9.64634" width="12" fill="#e377c2" fill-opacity="1"><title>Nephews:
1</title></rect>
</g>
<g class="node">
<rect id="r21" class="for_r21" x="296.12098" y="305.00396" height="9.64634" width="12" fill="#7f7f7f" fill-opacity="1"><title>Brother:
1</title></rect>
</g>
<g class="node">
<rect id="r22" class="for_r22" x="0" y="373.46954" height="19.29268" width="12" fill="#bcbd22" fill-opacity="1"><title>Friends:
2</title></rect>
</g>
<g class="node">
<rect id="r23" class="for_r23" x="296.12098" y="370.17683" height="9.64634" width="12" fill="#17becf" fill-opacity="1"><title>Gift_Painting:
1</title></rect>
</g>
<g class="node">
<rect id="r24" class="for_r24" x="296.12098" y="386.47005" height="9.64634" width="12" fill="#1f77b4" fill-opacity="1"><title>Connect:
1</title></rect>
</g>
<g class="node">
<rect id="r25" class="for_r25" x="0" y="438.96638" height="67.52439" width="12" fill="#ff7f0e" fill-opacity="1"><title>Self:
7</title></rect>
</g>
<g class="node">
<rect id="r26" class="for_r26" x="296.12098" y="419.05648" height="9.64634" width="12" fill="#2ca02c" fill-opacity="1"><title>Dive Physical:
1</title></rect>
</g>
<g class="node">
<rect id="r27" class="for_r27" x="296.12098" y="435.3497" height="9.64634" width="12" fill="#d62728" fill-opacity="1"><title>Run:
1</title></rect>
</g>
<g class="node">
<rect id="r28" class="for_r28" x="296.12098" y="451.64291" height="9.64634" width="12" fill="#9467bd" fill-opacity="1"><title>Physical_Therapy:
1</title></rect>
</g>
<g class="node">
<rect id="r29" class="for_r29" x="296.12098" y="467.93613" height="9.64634" width="12" fill="#8c564b" fill-opacity="1"><title>Dental:
1</title></rect>
</g>
<g class="node">
<rect id="r30" class="for_r30" x="296.12098" y="516.81578" height="9.64634" width="12" fill="#e377c2" fill-opacity="1"><title>Art Therapy:
1</title></rect>
</g>
<g class="node">
<rect id="r31" class="for_r31" x="296.12098" y="484.22934" height="9.64634" width="12" fill="#7f7f7f" fill-opacity="1"><title>Trello_Calendar:
1</title></rect>
</g>
<g class="node">
<rect id="r32" class="for_r32" x="296.12098" y="500.52256" height="9.64634" width="12" fill="#bcbd22" fill-opacity="1"><title>Sankey:
1</title></rect>
</g>
<g class="node">
<rect id="r33" class="for_r33" x="0" y="546.37202" height="48.23171" width="12" fill="#17becf" fill-opacity="1"><title>Business:
5</title></rect>
</g>
<g class="node">
<rect id="r34" class="for_r34" x="296.12098" y="533.10899" height="9.64634" width="12" fill="#1f77b4" fill-opacity="1"><title>FCB_Biz_acct:
1</title></rect>
</g>
<g class="node">
<rect id="r35" class="for_r35" x="296.12098" y="549.40221" height="9.64634" width="12" fill="#ff7f0e" fill-opacity="1"><title>Drive_100K_users:
1</title></rect>
</g>
<g class="node">
<rect id="r36" class="for_r36" x="296.12098" y="565.69543" height="9.64634" width="12" fill="#2ca02c" fill-opacity="1"><title>Artsy:
1</title></rect>
</g>
<g class="node">
<rect id="r37" class="for_r37" x="296.12098" y="581.98864" height="9.64634" width="12" fill="#d62728" fill-opacity="1"><title>Roblox:
1</title></rect>
</g>
<g class="node">
<rect id="r38" class="for_r38" x="296.12098" y="598.28186" height="9.64634" width="12" fill="#9467bd" fill-opacity="1"><title>Tax_deductions:
1</title></rect>
</g>
<g class="node">
<rect id="r39" class="for_r39" x="0" y="621.19123" height="28.93902" width="12" fill="#8c564b" fill-opacity="1"><title>Cisco:
3</title></rect>
</g>
<g class="node">
<rect id="r40" class="for_r40" x="296.12098" y="614.57508" height="9.64634" width="12" fill="#e377c2" fill-opacity="1"><title>Site_Visit:
1</title></rect>
</g>
<g class="node">
<rect id="r41" class="for_r41" x="296.12098" y="630.86829" height="9.64634" width="12" fill="#7f7f7f" fill-opacity="1"><title>Student_lab:
1</title></rect>
</g>
<g class="node">
<rect id="r42" class="for_r42" x="296.12098" y="647.16151" height="9.64634" width="12" fill="#bcbd22" fill-opacity="1"><title>BIZ_Dinner:
1</title></rect>
</g>
<g class="node">
<rect id="r43" class="for_r43" x="0" y="670.07088" height="28.93902" width="12" fill="#17becf" fill-opacity="1"><title>Divorce:
3</title></rect>
</g>
<g class="node">
<rect id="r44" class="for_r44" x="296.12098" y="663.45473" height="9.64634" width="12" fill="#1f77b4" fill-opacity="1"><title>lender:
1</title></rect>
</g>
<g class="node">
<rect id="r45" class="for_r45" x="296.12098" y="679.74794" height="9.64634" width="12" fill="#ff7f0e" fill-opacity="1"><title>Simms_Document:
1</title></rect>
</g>
<g class="node">
<rect id="r46" class="for_r46" x="296.12098" y="696.04116" height="9.64634" width="12" fill="#2ca02c" fill-opacity="1"><title>Court_date:
1</title></rect>
</g>
<g class="node">
<rect id="r47" class="for_r47" x="592.24196" y="191.64876" height="366.56098" width="12" fill="#d62728" fill-opacity="1"><title>Actions Taken:
38</title></rect>
</g>
<g class="node">
<rect id="r48" class="for_r48" x="296.12098" y="402.76326" height="9.64634" width="12" fill="#e377c2" fill-opacity="1"><title>Art:
1</title></rect>
</g>
</g>
<g id="sankey_labels" font-family="sans-serif" font-size="12px" fill="#000000">
<rect id="label0_bg" class="for_r0" x="-27.275" y="145.06208" width="26.05" height="35.99075" rx="3" fill="#fff" fill-opacity="0.75" stroke="none" stroke-width="0" stroke-opacity="0"></rect>
<text id="label0" class="for_r0" text-anchor="end" x="-4.725" y="163.15746" font-weight="400" font-size="8.48981px" dy="-7.69538">Kids<tspan x="-4.725" dy="19.19076" font-weight="400" font-size="16.8529px">15</tspan></text>
<rect id="label1_bg" class="for_r1" x="214.54909" y="28.74867" width="80.59361" height="40.15402" rx="3" fill="#fff" fill-opacity="0.75" stroke="none" stroke-width="0" stroke-opacity="0"></rect>
<text id="label1" class="for_r1" text-anchor="end" x="291.39598" y="49.13567" font-weight="400" font-size="9.8892px" dy="-8.987">Gaming_Interact<tspan x="291.39598" dy="22.35402" font-weight="400" font-size="19.6308px">1</tspan></text>
<rect id="label2_bg" class="for_r2" x="254.64284" y="45.04189" width="40.30455" height="40.15402" rx="3" fill="#fff" fill-opacity="0.75" stroke="none" stroke-width="0" stroke-opacity="0"></rect>
<text id="label2" class="for_r2" text-anchor="end" x="291.39598" y="65.42889" font-weight="400" font-size="9.8892px" dy="-8.987">Recess<tspan x="291.39598" dy="22.35402" font-weight="400" font-size="19.6308px">1</tspan></text>
<rect id="label3_bg" class="for_r3" x="163.00222" y="61.3351" width="131.94188" height="40.15402" rx="3" fill="#fff" fill-opacity="0.75" stroke="none" stroke-width="0" stroke-opacity="0"></rect>
<text id="label3" class="for_r3" text-anchor="end" x="291.39598" y="81.7221" font-weight="400" font-size="9.8892px" dy="-8.987">Teach_PC_keyboard_knobs<tspan x="291.39598" dy="22.35402" font-weight="400" font-size="19.6308px">1</tspan></text>
<rect id="label4_bg" class="for_r4" x="226.06472" y="77.62832" width="68.87837" height="40.15402" rx="3" fill="#fff" fill-opacity="0.75" stroke="none" stroke-width="0" stroke-opacity="0"></rect>
<text id="label4" class="for_r4" text-anchor="end" x="291.39598" y="98.01532" font-weight="400" font-size="9.8892px" dy="-8.987">Cello_Sounds<tspan x="291.39598" dy="22.35402" font-weight="400" font-size="19.6308px">1</tspan></text>
<rect id="label5_bg" class="for_r5" x="217.84597" y="93.92154" width="77.55369" height="40.15403" rx="3" fill="#fff" fill-opacity="0.75" stroke="none" stroke-width="0" stroke-opacity="0"></rect>
<text id="label5" class="for_r5" text-anchor="end" x="291.39598" y="114.30854" font-weight="400" font-size="9.8892px" dy="-8.987">Maddie_Church<tspan x="291.39598" dy="22.35402" font-weight="400" font-size="19.6308px">1</tspan></text>
<rect id="label6_bg" class="for_r6" x="214.00222" y="110.21475" width="81.39372" height="40.15402" rx="3" fill="#fff" fill-opacity="0.75" stroke="none" stroke-width="0" stroke-opacity="0"></rect>
<text id="label6" class="for_r6" text-anchor="end" x="291.39598" y="130.60175" font-weight="400" font-size="9.8892px" dy="-8.987">Boys_Bible_time<tspan x="291.39598" dy="22.35402" font-weight="400" font-size="19.6308px">1</tspan></text>
<rect id="label7_bg" class="for_r7" x="211.23659" y="126.50797" width="84.16288" height="40.15402" rx="3" fill="#fff" fill-opacity="0.75" stroke="none" stroke-width="0" stroke-opacity="0"></rect>
<text id="label7" class="for_r7" text-anchor="end" x="291.39598" y="146.89497" font-weight="400" font-size="9.8892px" dy="-8.987">Maddie_tea_date<tspan x="291.39598" dy="22.35402" font-weight="400" font-size="19.6308px">1</tspan></text>
<rect id="label8_bg" class="for_r8" x="197.51784" y="142.80119" width="97.42808" height="40.15402" rx="3" fill="#fff" fill-opacity="0.75" stroke="none" stroke-width="0" stroke-opacity="0"></rect>
<text id="label8" class="for_r8" text-anchor="end" x="291.39598" y="163.18819" font-weight="400" font-size="9.8892px" dy="-8.987">Boys_Sword_battles<tspan x="291.39598" dy="22.35402" font-weight="400" font-size="19.6308px">1</tspan></text>
<rect id="label9_bg" class="for_r9" x="253.00222" y="159.0944" width="41.94957" height="40.15402" rx="3" fill="#fff" fill-opacity="0.75" stroke="none" stroke-width="0" stroke-opacity="0"></rect>
<text id="label9" class="for_r9" text-anchor="end" x="291.39598" y="179.4814" font-weight="400" font-size="9.8892px" dy="-8.987">Billiards<tspan x="291.39598" dy="22.35402" font-weight="400" font-size="19.6308px">1</tspan></text>
<rect id="label10_bg" class="for_r10" x="237.53347" y="175.38761" width="57.85783" height="40.15402" rx="3" fill="#fff" fill-opacity="0.75" stroke="none" stroke-width="0" stroke-opacity="0"></rect>
<text id="label10" class="for_r10" text-anchor="end" x="291.39598" y="195.77462" font-weight="400" font-size="9.8892px" dy="-8.987">Trampoline<tspan x="291.39598" dy="22.35402" font-weight="400" font-size="19.6308px">1</tspan></text>
<rect id="label11_bg" class="for_r11" x="256.28347" y="191.68084" width="39.10472" height="40.15402" rx="3" fill="#fff" fill-opacity="0.75" stroke="none" stroke-width="0" stroke-opacity="0"></rect>
<text id="label11" class="for_r11" text-anchor="end" x="291.39598" y="212.06784" font-weight="400" font-size="9.8892px" dy="-8.987">Carline<tspan x="291.39598" dy="22.35402" font-weight="400" font-size="19.6308px">1</tspan></text>
<rect id="label12_bg" class="for_r12" x="197.34597" y="207.97405" width="98.04692" height="40.15402" rx="3" fill="#fff" fill-opacity="0.75" stroke="none" stroke-width="0" stroke-opacity="0"></rect>
<text id="label12" class="for_r12" text-anchor="end" x="291.39598" y="228.36105" font-weight="400" font-size="9.8892px" dy="-8.987">Cuddle_Time_Movie<tspan x="291.39598" dy="22.35402" font-weight="400" font-size="19.6308px">1</tspan></text>
<rect id="label13_bg" class="for_r13" x="261.95534" y="224.26727" width="33.1909" height="40.154" rx="3" fill="#fff" fill-opacity="0.75" stroke="none" stroke-width="0" stroke-opacity="0"></rect>
<text id="label13" class="for_r13" text-anchor="end" x="291.39598" y="244.65427" font-weight="400" font-size="9.8892px" dy="-8.987">Buffet<tspan x="291.39598" dy="22.35402" font-weight="400" font-size="19.6308px">1</tspan></text>
<rect id="label14_bg" class="for_r14" x="231.58034" y="240.56048" width="64.02382" height="40.154" rx="3" fill="#fff" fill-opacity="0.75" stroke="none" stroke-width="0" stroke-opacity="0"></rect>
<text id="label14" class="for_r14" text-anchor="end" x="291.39598" y="260.94748" font-weight="400" font-size="9.8892px" dy="-8.987">Maddie_Hair<tspan x="291.39598" dy="22.35402" font-weight="400" font-size="19.6308px">1</tspan></text>
<rect id="label15_bg" class="for_r15" x="215.65847" y="256.85369" width="80.28901" height="40.154" rx="3" fill="#fff" fill-opacity="0.75" stroke="none" stroke-width="0" stroke-opacity="0"></rect>
<text id="label15" class="for_r15" text-anchor="end" x="291.39598" y="277.2407" font-weight="400" font-size="9.8892px" dy="-8.987">Kids_Homework<tspan x="291.39598" dy="22.35402" font-weight="400" font-size="19.6308px">1</tspan></text>
<rect id="label16_bg" class="for_r16" x="-36.44687" y="306.1545" width="35.7375" height="39.25026" rx="3" fill="#fff" fill-opacity="0.75" stroke="none" stroke-width="0" stroke-opacity="0"></rect>
<text id="label16" class="for_r16" text-anchor="end" x="-4.725" y="326.08963" font-weight="400" font-size="9.48937px" dy="-8.53511">Family<tspan x="-4.725" dy="21.45023" font-weight="400" font-size="18.83711px">5</tspan></text>
<rect id="label17_bg" class="for_r17" x="227.18972" y="305.73336" width="68.20921" height="40.154" rx="3" fill="#fff" fill-opacity="0.75" stroke="none" stroke-width="0" stroke-opacity="0"></rect>
<text id="label17" class="for_r17" text-anchor="end" x="291.39598" y="326.12035" font-weight="400" font-size="9.8892px" dy="-8.987">Mom_Garden<tspan x="291.39598" dy="22.35402" font-weight="400" font-size="19.6308px">1</tspan></text>
<rect id="label18_bg" class="for_r18" x="247.51784" y="322.02657" width="47.62974" height="40.154" rx="3" fill="#fff" fill-opacity="0.75" stroke="none" stroke-width="0" stroke-opacity="0"></rect>
<text id="label18" class="for_r18" text-anchor="end" x="291.39598" y="342.41357" font-weight="400" font-size="9.8892px" dy="-8.987">Mom_Art<tspan x="291.39598" dy="22.35402" font-weight="400" font-size="19.6308px">1</tspan></text>
<rect id="label19_bg" class="for_r19" x="232.12722" y="338.31979" width="63.26436" height="40.154" rx="3" fill="#fff" fill-opacity="0.75" stroke="none" stroke-width="0" stroke-opacity="0"></rect>
<text id="label19" class="for_r19" text-anchor="end" x="291.39598" y="358.70678" font-weight="400" font-size="9.8892px" dy="-8.987">Mama_Delia<tspan x="291.39598" dy="22.35402" font-weight="400" font-size="19.6308px">1</tspan></text>
<rect id="label20_bg" class="for_r20" x="309.34598" y="273.14691" width="48.54915" height="40.154" rx="3" fill="#fff" fill-opacity="0.75" stroke="none" stroke-width="0" stroke-opacity="0"></rect>
<text id="label20" class="for_r20" text-anchor="start" x="312.84598" y="293.53392" font-weight="400" font-size="9.8892px" dy="-8.987">Nephews<tspan x="312.84598" dy="22.35402" font-weight="400" font-size="19.6308px">1</tspan></text>
<rect id="label21_bg" class="for_r21" x="309.34598" y="289.44012" width="40.40931" height="40.154" rx="3" fill="#fff" fill-opacity="0.75" stroke="none" stroke-width="0" stroke-opacity="0"></rect>
<text id="label21" class="for_r21" text-anchor="start" x="312.84598" y="309.82713" font-weight="400" font-size="9.8892px" dy="-8.987">Brother<tspan x="312.84598" dy="22.35402" font-weight="400" font-size="19.6308px">1</tspan></text>
<rect id="label22_bg" class="for_r22" x="-41.15" y="362.84182" width="40.02108" height="39.92808" rx="3" fill="#fff" fill-opacity="0.75" stroke="none" stroke-width="0" stroke-opacity="0"></rect>
<text id="label22" class="for_r22" text-anchor="end" x="-4.725" y="383.11589" font-weight="400" font-size="9.78924px" dy="-8.87404">Friends<tspan x="-4.725" dy="22.12807" font-weight="400" font-size="19.43238px">2</tspan></text>
<rect id="label23_bg" class="for_r23" x="231.01784" y="354.613" width="64.37394" height="40.154" rx="3" fill="#fff" fill-opacity="0.75" stroke="none" stroke-width="0" stroke-opacity="0"></rect>
<text id="label23" class="for_r23" text-anchor="end" x="291.39598" y="375" font-weight="400" font-size="9.8892px" dy="-8.987">Gift_Painting<tspan x="291.39598" dy="22.35402" font-weight="400" font-size="19.6308px">1</tspan></text>
<rect id="label24_bg" class="for_r24" x="250.78347" y="370.90621" width="44.35411" height="40.154" rx="3" fill="#fff" fill-opacity="0.75" stroke="none" stroke-width="0" stroke-opacity="0"></rect>
<text id="label24" class="for_r24" text-anchor="end" x="291.39598" y="391.29322" font-weight="400" font-size="9.8892px" dy="-8.987">Connect<tspan x="291.39598" dy="22.35402" font-weight="400" font-size="19.6308px">1</tspan></text>
<rect id="label25_bg" class="for_r25" x="-24.525" y="453.72939" width="24.71248" height="37.79835" rx="3" fill="#fff" fill-opacity="0.75" stroke="none" stroke-width="0" stroke-opacity="0"></rect>
<text id="label25" class="for_r25" text-anchor="end" x="-4.725" y="472.72858" font-weight="400" font-size="9.28946px" dy="-8.59918">Self<tspan x="-4.725" dy="20.99834" font-weight="400" font-size="18.44027px">7</tspan></text>
<rect id="label26_bg" class="for_r26" x="228.28347" y="403.49264" width="66.6125" height="40.154" rx="3" fill="#fff" fill-opacity="0.75" stroke="none" stroke-width="0" stroke-opacity="0"></rect>
<text id="label26" class="for_r26" text-anchor="end" x="291.39598" y="423.87965" font-weight="400" font-size="9.8892px" dy="-8.987">Dive Physical<tspan x="291.39598" dy="22.35402" font-weight="400" font-size="19.6308px">1</tspan></text>
<rect id="label27_bg" class="for_r27" x="269.47097" y="419.78588" width="25.92979" height="40.154" rx="3" fill="#fff" fill-opacity="0.75" stroke="none" stroke-width="0" stroke-opacity="0"></rect>
<text id="label27" class="for_r27" text-anchor="end" x="291.39598" y="440.17287" font-weight="400" font-size="9.8892px" dy="-8.987">Run<tspan x="291.39598" dy="22.35402" font-weight="400" font-size="19.6308px">1</tspan></text>
<rect id="label28_bg" class="for_r28" x="209.06472" y="436.0791" width="86.88853" height="40.154" rx="3" fill="#fff" fill-opacity="0.75" stroke="none" stroke-width="0" stroke-opacity="0"></rect>
<text id="label28" class="for_r28" text-anchor="end" x="291.39598" y="456.46608" font-weight="400" font-size="9.8892px" dy="-8.987">Physical_Therapy<tspan x="291.39598" dy="22.35402" font-weight="400" font-size="19.6308px">1</tspan></text>
<rect id="label29_bg" class="for_r29" x="259.03347" y="452.37231" width="35.8625" height="40.154" rx="3" fill="#fff" fill-opacity="0.75" stroke="none" stroke-width="0" stroke-opacity="0"></rect>
<text id="label29" class="for_r29" text-anchor="end" x="291.39598" y="472.7593" font-weight="400" font-size="9.8892px" dy="-8.987">Dental<tspan x="291.39598" dy="22.35402" font-weight="400" font-size="19.6308px">1</tspan></text>
<rect id="label30_bg" class="for_r30" x="308.34598" y="501.25198" width="60.79579" height="40.154" rx="3" fill="#fff" fill-opacity="0.75" stroke="none" stroke-width="0" stroke-opacity="0"></rect>
<text id="label30" class="for_r30" text-anchor="start" x="312.84598" y="521.63895" font-weight="400" font-size="9.8892px" dy="-8.987">Art Therapy<tspan x="312.84598" dy="22.35402" font-weight="400" font-size="19.6308px">1</tspan></text>
<rect id="label31_bg" class="for_r31" x="216.65847" y="468.66552" width="78.93687" height="40.154" rx="3" fill="#fff" fill-opacity="0.75" stroke="none" stroke-width="0" stroke-opacity="0"></rect>
<text id="label31" class="for_r31" text-anchor="end" x="291.39598" y="489.05252" font-weight="400" font-size="9.8892px" dy="-8.987">Trello_Calendar<tspan x="291.39598" dy="22.35402" font-weight="400" font-size="19.6308px">1</tspan></text>
<rect id="label32_bg" class="for_r32" x="254.62722" y="484.95873" width="41.31419" height="40.15403" rx="3" fill="#fff" fill-opacity="0.75" stroke="none" stroke-width="0" stroke-opacity="0"></rect>
<text id="label32" class="for_r32" text-anchor="end" x="291.39598" y="505.34573" font-weight="400" font-size="9.8892px" dy="-8.987">Sankey<tspan x="291.39598" dy="22.35402" font-weight="400" font-size="19.6308px">1</tspan></text>
<rect id="label33_bg" class="for_r33" x="-46.99375" y="550.55276" width="46.28437" height="39.2502" rx="3" fill="#fff" fill-opacity="0.75" stroke="none" stroke-width="0" stroke-opacity="0"></rect>
<text id="label33" class="for_r33" text-anchor="end" x="-4.725" y="570.48788" font-weight="400" font-size="9.48937px" dy="-8.53511">Business<tspan x="-4.725" dy="21.45023" font-weight="400" font-size="18.83711px">5</tspan></text>
<rect id="label34_bg" class="for_r34" x="224.98659" y="517.54519" width="70.14915" height="40.154" rx="3" fill="#fff" fill-opacity="0.75" stroke="none" stroke-width="0" stroke-opacity="0"></rect>
<text id="label34" class="for_r34" text-anchor="end" x="291.39598" y="537.93216" font-weight="400" font-size="9.8892px" dy="-8.987">FCB_Biz_acct<tspan x="291.39598" dy="22.35402" font-weight="400" font-size="19.6308px">1</tspan></text>
<rect id="label35_bg" class="for_r35" x="206.31472" y="533.8384" width="88.63835" height="40.154" rx="3" fill="#fff" fill-opacity="0.75" stroke="none" stroke-width="0" stroke-opacity="0"></rect>
<text id="label35" class="for_r35" text-anchor="end" x="291.39598" y="554.22538" font-weight="400" font-size="9.8892px" dy="-8.987">Drive_100K_users<tspan x="291.39598" dy="22.35402" font-weight="400" font-size="19.6308px">1</tspan></text>
<rect id="label36_bg" class="for_r36" x="264.08034" y="550.13162" width="31.86497" height="40.154" rx="3" fill="#fff" fill-opacity="0.75" stroke="none" stroke-width="0" stroke-opacity="0"></rect>
<text id="label36" class="for_r36" text-anchor="end" x="291.39598" y="570.5186" font-weight="400" font-size="9.8892px" dy="-8.987">Artsy<tspan x="291.39598" dy="22.35402" font-weight="400" font-size="19.6308px">1</tspan></text>
<rect id="label37_bg" class="for_r37" x="256.83034" y="566.42483" width="39.11436" height="40.154" rx="3" fill="#fff" fill-opacity="0.75" stroke="none" stroke-width="0" stroke-opacity="0"></rect>
<text id="label37" class="for_r37" text-anchor="end" x="291.39598" y="586.81181" font-weight="400" font-size="9.8892px" dy="-8.987">Roblox<tspan x="291.39598" dy="22.35402" font-weight="400" font-size="19.6308px">1</tspan></text>
<rect id="label38_bg" class="for_r38" x="217.92409" y="582.71804" width="77.01823" height="40.154" rx="3" fill="#fff" fill-opacity="0.75" stroke="none" stroke-width="0" stroke-opacity="0"></rect>
<text id="label38" class="for_r38" text-anchor="end" x="291.39598" y="603.10503" font-weight="400" font-size="9.8892px" dy="-8.987">Tax_deductions<tspan x="291.39598" dy="22.35402" font-weight="400" font-size="19.6308px">1</tspan></text>
<rect id="label39_bg" class="for_r39" x="-32.75938" y="615.49972" width="32.14058" height="39.7021" rx="3" fill="#fff" fill-opacity="0.75" stroke="none" stroke-width="0" stroke-opacity="0"></rect>
<text id="label39" class="for_r39" text-anchor="end" x="-4.725" y="635.66074" font-weight="400" font-size="9.68929px" dy="-8.76107">Cisco<tspan x="-4.725" dy="21.90213" font-weight="400" font-size="19.23396px">3</tspan></text>
<rect id="label40_bg" class="for_r40" x="246.58034" y="599.01125" width="48.5608" height="40.154" rx="3" fill="#fff" fill-opacity="0.75" stroke="none" stroke-width="0" stroke-opacity="0"></rect>
<text id="label40" class="for_r40" text-anchor="end" x="291.39598" y="619.39825" font-weight="400" font-size="9.8892px" dy="-8.987">Site_Visit<tspan x="291.39598" dy="22.35402" font-weight="400" font-size="19.6308px">1</tspan></text>
<rect id="label41_bg" class="for_r41" x="234.84597" y="615.30447" width="60.54353" height="40.154" rx="3" fill="#fff" fill-opacity="0.75" stroke="none" stroke-width="0" stroke-opacity="0"></rect>
<text id="label41" class="for_r41" text-anchor="end" x="291.39598" y="635.69146" font-weight="400" font-size="9.8892px" dy="-8.987">Student_lab<tspan x="291.39598" dy="22.35402" font-weight="400" font-size="19.6308px">1</tspan></text>
<rect id="label42_bg" class="for_r42" x="237.61159" y="631.59768" width="57.97911" height="40.154" rx="3" fill="#fff" fill-opacity="0.75" stroke="none" stroke-width="0" stroke-opacity="0"></rect>
<text id="label42" class="for_r42" text-anchor="end" x="291.39598" y="651.98468" font-weight="400" font-size="9.8892px" dy="-8.987">BIZ_Dinner<tspan x="291.39598" dy="22.35402" font-weight="400" font-size="19.6308px">1</tspan></text>
<rect id="label43_bg" class="for_r43" x="-41.38437" y="664.37936" width="40.75653" height="39.7021" rx="3" fill="#fff" fill-opacity="0.75" stroke="none" stroke-width="0" stroke-opacity="0"></rect>
<text id="label43" class="for_r43" text-anchor="end" x="-4.725" y="684.54039" font-weight="400" font-size="9.68929px" dy="-8.76107">Divorce<tspan x="-4.725" dy="21.90213" font-weight="400" font-size="19.23396px">3</tspan></text>
<rect id="label44_bg" class="for_r44" x="260.12722" y="647.89089" width="35.47413" height="40.154" rx="3" fill="#fff" fill-opacity="0.75" stroke="none" stroke-width="0" stroke-opacity="0"></rect>
<text id="label44" class="for_r44" text-anchor="end" x="291.39598" y="668.2779" font-weight="400" font-size="9.8892px" dy="-8.987">lender<tspan x="291.39598" dy="22.35402" font-weight="400" font-size="19.6308px">1</tspan></text>
<rect id="label45_bg" class="for_r45" x="206.87722" y="664.18411" width="88.26408" height="40.154" rx="3" fill="#fff" fill-opacity="0.75" stroke="none" stroke-width="0" stroke-opacity="0"></rect>
<text id="label45" class="for_r45" text-anchor="end" x="291.39598" y="684.57111" font-weight="400" font-size="9.8892px" dy="-8.987">Simms_Document<tspan x="291.39598" dy="22.35402" font-weight="400" font-size="19.6308px">1</tspan></text>
<rect id="label46_bg" class="for_r46" x="238.70534" y="680.47732" width="56.68901" height="40.154" rx="3" fill="#fff" fill-opacity="0.75" stroke="none" stroke-width="0" stroke-opacity="0"></rect>
<text id="label46" class="for_r46" text-anchor="end" x="291.39598" y="700.86433" font-weight="400" font-size="9.8892px" dy="-8.987">Court_date<tspan x="291.39598" dy="22.35402" font-weight="400" font-size="19.6308px">1</tspan></text>
<rect id="label47_bg" class="for_r47" x="604.46698" y="360.56228" width="47.28187" height="27.79396" rx="3" fill="#fff" fill-opacity="0.75" stroke="none" stroke-width="0" stroke-opacity="0"></rect>
<text id="label47" class="for_r47" text-anchor="start" x="608.96696" y="374.92925" font-weight="400" font-size="6.1908px" dy="-5.96699">Actions Taken<tspan x="608.96696" dy="13.99398" font-weight="400" font-size="12.2892px">38</tspan></text>
<rect id="label48_bg" class="for_r48" x="273.97097" y="387.19943" width="21.17997" height="40.154" rx="3" fill="#fff" fill-opacity="0.75" stroke="none" stroke-width="0" stroke-opacity="0"></rect>
<text id="label48" class="for_r48" text-anchor="end" x="291.39598" y="407.58643" font-weight="400" font-size="9.8892px" dy="-8.987">Art<tspan x="291.39598" dy="22.35402" font-weight="400" font-size="19.6308px">1</tspan></text>
</g>
</g></svg>